<svg width="378" height="308" viewBox="0 0 378 308" fill="none" xmlns="http://www.w3.org/2000/svg">
<path d="M301.729 3.91113C302.571 0.155515 307.162 -1.281 309.994 1.3252L376.388 62.4229C379.22 65.0292 378.168 69.7243 374.495 70.874L288.386 97.8232C284.713 98.9727 281.173 95.7148 282.014 91.959L286.259 72.998C284.575 72.7605 282.93 71.9253 281.606 70.6807C279.704 68.8917 277.76 66.7491 274.797 66.6006C273.623 66.5439 273.39 65.8717 273.404 64.9102C273.411 64.295 273.581 63.1363 273.016 63.2207C270.612 63.6449 269.331 61.2477 266.906 61.3535C263.215 61.5656 259.481 60.8591 255.769 60.8096C247.856 60.7035 240.022 59.6571 232.138 58.9854C231.105 58.9005 229.754 58.2989 229.16 59.3594C228.566 60.42 229.613 61.3397 230.214 62.1953C233.24 66.4521 235.609 71.1121 238.367 75.5244C240.234 78.4942 242.263 81.3581 244.108 84.335C246.059 87.5111 247.579 90.9326 248.627 94.5098C249.016 96.0567 249.503 97.5777 250.084 99.0635C250.911 100.964 251.338 103.015 251.338 105.088C251.338 107.161 250.911 109.212 250.084 111.113C247.142 118.552 243.854 125.828 240.22 132.941C237.975 137.244 234.232 140.575 229.698 142.304C226.262 143.718 222.776 144.984 219.297 146.242C216.547 147.077 213.636 147.237 210.812 146.709C205.932 146.073 201.003 146.32 196.117 145.945C192.78 145.691 189.35 146.404 186.048 145.025C184.839 144.524 183.305 144.941 181.919 144.729C175.831 143.761 169.67 143.326 163.506 143.428C153.698 143.817 144.195 141.795 134.557 140.953C130.109 140.564 125.626 140.422 121.186 139.786C119.381 139.622 117.604 139.232 115.896 138.626C115.387 138.414 114.793 138.315 114.354 138.654C113.803 139.206 114.114 139.828 114.361 140.415C115.21 142.14 116.052 143.873 116.992 145.535C118.661 148.519 120.705 151.298 121.914 154.501C122.48 155.972 123.802 156.757 124.537 158.086C125.845 160.455 127.041 162.895 129.141 164.797C130.3 165.843 130.901 167.66 131.495 169.074C132.987 172.617 135.384 175.594 137.074 179.052C137.923 180.791 139.28 182.347 140.058 184.199C140.231 184.466 140.381 184.748 140.504 185.041C141.699 190.097 144.682 194.467 146.104 199.409C147.836 205.384 149.731 211.409 148.303 217.844C147.805 219.469 147.134 221.036 146.302 222.518C143.848 228.068 141.359 233.612 138.615 239.015C133.729 248.638 125.689 254.231 115.528 257.59C104.717 261.161 93.608 262.936 82.4287 264.513C81.3856 264.765 80.3004 264.789 79.2471 264.583C78.7054 264.356 78.1099 264.289 77.5312 264.389C76.9524 264.489 76.4134 264.753 75.9795 265.149C75.7115 265.329 75.4086 265.45 75.0908 265.505C74.773 265.56 74.4473 265.546 74.1348 265.467C68.4143 264.894 62.969 266.592 57.4395 267.539C56.8177 267.703 56.1796 267.801 55.5371 267.829C49.0107 267.525 42.5758 269.109 36.0352 268.748C33.3271 268.628 30.5549 269.519 27.7549 269.378C26.6734 269.329 26.666 270.198 27.1396 270.969C27.6084 271.695 28.2906 272.258 29.0918 272.581C34.3172 274.865 38.8288 278.4 43.5098 281.483C47.1584 283.888 51.0684 285.903 54.4766 288.675C55.1271 289.198 56.0963 289.403 56.3438 290.329C56.5912 291.255 57.3764 291.475 58.2461 291.708C59.7659 291.955 61.1385 292.762 62.0928 293.971C60.4735 294.388 59.0303 293.978 57.2979 293.9C57.9795 295.03 58.9486 295.959 60.1055 296.594C60.3933 296.832 60.7524 296.969 61.126 296.981C61.4994 296.994 61.8665 296.883 62.1699 296.665C63.6335 295.64 65.1399 296.014 66.752 296.565C65.8328 299.394 63.4506 296.177 62.3545 297.824C62.1636 298.92 63.5564 299.211 63.7686 300.653C60.0775 299.338 57.0577 297.28 53.8545 295.42C55.5401 297.967 57.6553 300.201 60.1055 302.024C57.5529 301.423 55.6789 299.38 52.6172 298.864C54.4202 301.742 57.0507 303.014 59.582 305.376C55.1274 303.75 52.002 300.512 47.5615 300.427C50.2459 302.285 52.7378 304.408 55 306.763C48.9755 303.354 42.8162 301.508 37.7109 297.351C37.0394 298.234 37.1808 298.758 37.7393 299.43C39.5572 301.506 41.797 303.172 44.3086 304.315C45.9035 304.949 47.3349 305.936 48.4951 307.201L48.3818 307.088C48.2051 307.378 47.8868 307.667 47.6182 307.498C44.4787 305.419 40.6387 304.931 37.4355 302.888C34.2324 300.844 30.6824 299.231 27.4297 297.209C22.869 294.374 17.8559 292.358 13.5215 289.099C10.699 286.897 7.62482 285.039 4.36426 283.562C3.9137 283.377 3.51104 283.09 3.18652 282.727C2.86209 282.363 2.62385 281.931 2.49023 281.462C2.15086 280.104 1.90337 278.768 0.482422 278.04C0.28878 277.936 0.138524 277.766 0.0605469 277.561C-0.0174295 277.355 -0.018404 277.128 0.0576172 276.922C1.16759 274.893 0.362567 272.206 2.23633 270.502C2.50166 270.238 2.71002 269.922 2.84863 269.574C2.98726 269.226 3.05294 268.854 3.04199 268.479C3.05178 267.363 3.31979 266.263 3.8252 265.267C4.33059 264.271 5.05957 263.405 5.95508 262.737C6.70446 262.214 6.4993 261.529 6.52051 260.758C6.57594 258.017 6.79827 255.283 7.18555 252.569C7.18682 252.358 7.23222 252.149 7.31934 251.956C7.40648 251.763 7.53345 251.591 7.69141 251.45C7.84936 251.31 8.03584 251.204 8.2373 251.14C8.43866 251.076 8.65128 251.054 8.86133 251.077C12.0429 251.045 15.1951 250.466 18.1807 249.366C20.5707 248.461 23.202 248.73 25.79 248.574C35.1732 248.143 44.4857 247.472 53.8477 246.213C58.8327 245.541 63.8677 245.724 68.8457 245.173C71.9992 244.848 75.2235 245.003 78.2285 243.724C79.1394 243.389 80.1232 243.304 81.0781 243.477C84.0571 243.766 87.0645 243.472 89.9316 242.613C92.6114 241.899 95.3549 242.097 98.0771 241.468C104.391 240.004 110.861 239.205 117.211 237.975C118.983 237.579 120.671 236.873 122.196 235.889C123.502 234.969 124.915 234.211 126.403 233.633C130.151 232.431 132.485 228.967 136.204 227.736C137.088 227.432 137.01 226.59 136.784 225.812C136.134 223.635 135.667 221.471 134.91 219.371C133.022 214.075 131.198 208.757 129.021 203.581C127.713 200.338 126.005 197.271 123.936 194.452C122.15 191.946 120.595 189.284 119.29 186.497C116.313 180.692 112.721 175.346 109.192 169.923C105.523 164.301 101.917 158.602 101.182 151.658C100.965 150.614 100.659 149.59 100.27 148.597C99.8523 147.076 99.053 145.499 100.778 144.227C102.744 136.915 107.298 130.636 109.172 123.289C109.815 120.751 110.162 120.687 112.912 121.373C113.329 121.453 113.757 121.447 114.172 121.355C114.586 121.264 114.978 121.09 115.323 120.843C116.964 119.952 118.612 119.294 120.514 120.022C121.028 120.177 121.583 120.129 122.062 119.888C125.902 118.424 129.812 118.87 133.743 119.407C142.598 120.779 151.522 121.677 160.473 122.095C161.539 122.287 162.64 122.14 163.619 121.677C163.903 121.522 164.218 121.433 164.541 121.416C164.864 121.399 165.187 121.455 165.485 121.578C167.849 122.243 170.286 122.618 172.74 122.695C177.294 123.006 181.848 123.487 186.353 123.904C190.595 124.314 194.859 125.028 199.073 125.142C203.288 125.255 207.792 125.644 212.147 125.885C215.131 126.04 218.101 126.182 221.078 126.33C221.501 126.395 221.932 126.386 222.352 126.302C227.28 124.668 232.407 123.544 237.066 121.146C237.416 121.008 237.735 120.802 238.003 120.538C238.271 120.274 238.484 119.959 238.629 119.611C238.773 119.264 238.846 118.891 238.844 118.515C238.841 118.138 238.763 117.766 238.614 117.42C237.264 113.623 236.344 109.663 234.414 106.064C233.976 105.207 233.694 104.277 233.58 103.32C233.556 102.574 233.267 101.86 232.767 101.306C229.74 98.3642 228.284 94.3899 226 90.9463C225.279 89.8715 224.282 89.1146 223.596 88.0186C221.932 85.0826 219.78 82.4519 217.231 80.2402C216.532 79.7271 216.047 78.9743 215.867 78.126C215.655 74.7605 212.805 73.3109 211.052 71.0625C209.892 69.5776 209.065 67.8588 207.58 66.6143C206.859 66.0062 206.144 65.3914 205.388 66.1338C203.535 67.9864 201.159 67.3072 199.37 66.7627C196.768 65.9708 194.364 66.5938 191.889 66.6504C190.793 66.6716 189.767 66.8759 188.954 65.9355C188.657 65.6385 188.396 65.0805 187.972 65.3633C186.586 66.1693 185.807 65.5472 185.228 64.3311C184.81 63.4473 184.16 63.6451 183.354 63.7158C181.177 63.8997 180.448 63.1005 180.887 60.9512C181.099 59.9048 181.311 59.0277 180.18 58.5186C179.048 58.0094 180.384 56.3616 179.026 55.8242C178.108 55.5162 177.284 54.9756 176.637 54.2549C176.34 53.9579 175.887 53.4197 175.986 53.2217C177.435 50.1889 174.53 51.8503 173.525 51.1719C175.364 49.8425 175.47 48.1093 175.598 46.1719C175.746 44.6092 175.279 42.0786 177.994 41.5977C178.348 41.5411 178.623 41.2228 178.369 40.9541C176.644 39.0733 178.567 38.3232 179.557 37.5596C180.391 36.9091 181.127 36.5132 180.533 35.3115C180.336 34.983 180.27 34.5918 180.349 34.2168C180.427 33.8419 180.645 33.5106 180.957 33.2891C181.487 32.8719 181.898 32.4329 181.424 31.6904C181.272 31.4626 181.211 31.1854 181.256 30.915C181.3 30.6446 181.447 30.4013 181.664 30.2344C183.891 28.9404 183.842 26.557 184.549 24.5205C184.86 25.1569 184.867 25.9564 185.511 26.3877C185.758 26.5751 186.053 26.689 186.361 26.7178C186.67 26.7464 186.981 26.6884 187.258 26.5498C187.344 26.5024 187.417 26.4342 187.47 26.3516C187.523 26.2689 187.554 26.1741 187.562 26.0762C187.535 25.7663 187.4 25.4758 187.18 25.2559C186.96 25.0359 186.669 24.9007 186.359 24.874C185.758 24.7255 185.178 24.6411 184.549 24.4785C186.232 23.4179 187.993 22.4487 189.591 21.2607C190.163 20.7911 190.851 20.4841 191.582 20.3721C192.314 20.2601 193.063 20.3468 193.749 20.624C196.118 21.4655 198.416 22.8309 201.103 22.3926C202.644 24.3581 204.808 23.7358 206.88 23.9268C210.324 24.3565 213.797 24.5191 217.267 24.4141C219.94 24.3223 222.616 24.4882 225.257 24.9092C228.531 25.3546 231.854 24.959 235.121 25.666C240.919 26.9388 246.845 26.0758 252.644 26.9102C258.993 27.8011 265.336 26.9464 271.672 27.0029C272.524 26.9404 273.38 26.9447 274.231 27.0166C279.966 27.9429 285.227 26.2038 290.389 24.0684C291.711 23.5239 292.92 22.9508 294.377 23.4033C295.324 23.5855 296.304 23.49 297.198 23.1279C297.279 23.0976 297.362 23.0706 297.444 23.0469L301.729 3.91113Z" fill="white"/>
</svg>
