<svg width="579" height="61" viewBox="0 0 579 61" fill="none" xmlns="http://www.w3.org/2000/svg">
<path d="M524.678 5.19043C524.536 1.34423 528.612 -1.21261 532.014 0.587891L576.321 24.0391C579.723 25.8397 579.9 30.6476 576.64 32.6934L534.177 59.3389C530.917 61.3846 526.664 59.1343 526.522 55.2881L525.976 40.4609C523.545 40.9757 521.076 41.3714 518.665 41.9072C511.85 43.2562 504.967 44.234 498.046 44.8369C489.226 45.8369 480.436 47.3974 471.516 47.3174C468.337 47.1276 465.147 47.3224 462.016 47.8975C458.286 48.7475 454.325 48.1772 450.455 48.3672C436.065 49.0772 421.645 48.6573 407.226 49.4873C397.866 50.0173 388.535 51.1273 379.165 51.4873C377.345 51.5672 375.625 50.9068 373.815 51.2168C373.216 51.3168 372.256 50.8872 371.985 51.2168C370.224 53.1268 369.108 51.5612 367.845 50.6465C368.187 49.9299 368.012 48.4657 369.226 48.9375C372.176 50.0673 375.346 47.9376 378.226 49.7676C378.359 49.864 378.515 49.9256 378.679 49.9473C378.842 49.9689 379.01 49.95 379.164 49.8916C379.319 49.8332 379.456 49.7369 379.564 49.6123C379.673 49.4877 379.749 49.3378 379.785 49.1768C379.838 48.9899 379.852 48.7938 379.823 48.6016C379.795 48.4092 379.726 48.2251 379.621 48.0615C379.516 47.898 379.378 47.7583 379.215 47.6523C379.052 47.5465 378.868 47.4767 378.676 47.4473C378.053 47.3032 377.413 47.2492 376.775 47.2871C372.045 47.2871 367.326 47.2871 362.596 47.2871C361.866 47.2871 360.956 46.7074 360.506 47.6074C360.056 48.5074 360.965 49.2275 361.455 49.9375C361.668 50.1794 361.927 50.3755 362.218 50.5146C362.464 50.6326 362.728 50.7037 362.999 50.7324C362.824 51.5666 362.642 52.7386 361.556 51.8867C360.396 50.9768 358.656 51.9669 357.726 50.627C357.486 50.2871 357.495 50.2572 357.096 50.627C355.846 51.6869 355.796 51.6272 355.096 49.4775H355.046C355.48 49.0075 355.84 48.4746 356.115 47.8975C356.445 46.7775 355.825 46.0571 354.726 46.207C353.306 46.397 352.186 48.2068 350.476 46.9668C350.416 46.9668 350.206 46.9673 350.136 47.0869C349.336 47.9969 350.245 49.6268 348.785 50.2568L350.525 51.7168C348.445 51.6168 347.385 51.057 347.285 49.167C347.215 47.9072 346.176 47.5776 345.056 47.4775C343.936 47.3775 343.585 47.8373 343.455 48.9873C343.305 50.3572 341.905 50.0968 340.945 50.2168C340.683 50.22 340.43 50.1288 340.229 49.96C340.029 49.791 339.896 49.5556 339.855 49.2969C339.82 49.1739 339.81 49.0447 339.828 48.918C339.846 48.7914 339.89 48.6699 339.958 48.5615C340.026 48.453 340.116 48.3594 340.223 48.2881C340.329 48.2168 340.449 48.1692 340.575 48.1475C341.085 47.9975 341.575 47.7772 341.646 47.1475C341.466 46.9975 341.205 46.6775 341.105 46.7275C338.486 47.8275 335.976 48.0568 333.676 45.9668C333.346 45.6669 333.036 45.7474 332.676 46.1172C330.986 48.0372 330.735 48.1172 329.495 47.1172C327.888 46.5297 326.244 46.0451 324.575 45.667C322.165 46.2269 320.015 45.0769 317.705 44.5869C316.965 45.7169 318.525 46.3374 318.355 47.3174C314.256 48.4674 314.145 48.3173 317.115 52.4072C315.426 53.1069 315.165 50.9575 313.886 50.8672C313.786 52.5472 312.885 53.2372 311.245 52.8672C309.995 52.5569 308.666 50.6771 309.006 49.6572C309.346 48.6373 310.815 49.4671 311.125 48.3672L311.126 48.3643C310.846 48.1495 310.525 47.995 310.182 47.9111C309.806 47.8193 309.413 47.8146 309.035 47.8975C308.336 48.0572 308.215 47.6672 308.195 47.0674C308.115 44.0674 308.105 44.0671 304.516 44.707C304.256 45.297 304.516 45.6175 305.006 45.9375C307.005 47.3273 307.085 47.6174 305.315 48.7373C304.405 49.3073 304.016 49.7373 304.096 50.7373C304.216 52.2772 303.095 52.7373 301.825 52.7373C300.556 52.7371 300.716 51.6271 300.466 50.8271C300.216 50.0272 300.186 49.2572 299.466 48.8271C299.24 48.6934 298.975 48.6425 298.716 48.6826C298.457 48.7228 298.22 48.8514 298.046 49.0469C297.736 49.3568 297.936 49.657 298.146 50.0469C299.626 52.5569 299.605 52.5673 295.646 53.1973C296.516 50.8173 295.595 48.7273 294.835 46.7773C295.645 45.6275 296.625 46.1772 297.455 46.0674C298.105 45.9774 298.826 45.9268 298.676 45.0068C298.657 44.8761 298.613 44.7503 298.546 44.6367C298.479 44.5231 298.389 44.4237 298.283 44.3447C298.177 44.2657 298.056 44.2079 297.928 44.1758C297.799 44.1437 297.666 44.1374 297.535 44.1572C295.625 44.2773 293.745 44.8271 291.815 44.2871C291.576 44.2172 291.086 44.557 290.926 44.8369C290.606 45.3868 290.925 45.8374 291.455 46.0674C292.195 46.4974 293.805 47.187 293.455 47.417C290.965 49.1269 293.605 50.0376 293.855 51.2676C293.965 51.7774 293.965 52.3971 293.426 52.6172C293.181 52.7124 292.91 52.7152 292.663 52.625C292.416 52.5348 292.211 52.3576 292.085 52.127C291.285 50.2372 290.566 48.3172 289.846 46.3975C289.386 45.1476 288.916 43.9773 287.256 43.9971C285.044 43.9971 284.718 44.6623 285.556 47.5742C285.217 47.7961 284.884 48.0101 284.525 48.207L284.205 45.9268C284.135 45.437 284.205 44.9274 283.775 44.5176C283.055 43.8476 276.776 43.3373 275.936 43.9072C275.773 44.0098 275.651 44.1649 275.589 44.3467C275.527 44.5287 275.529 44.7268 275.596 44.9072C275.77 45.385 275.997 45.8418 276.275 46.2676C276.567 46.61 276.786 47.0079 276.918 47.4375C277.05 47.8673 277.094 48.3204 277.046 48.7676C276.746 50.0871 275.385 48.8273 274.825 49.6172C274.595 49.9271 274.346 50.2076 274.096 50.5176C273.528 49.9066 272.767 49.5077 271.941 49.3877C271.116 49.2677 270.274 49.4335 269.556 49.8574C269.408 49.9213 269.276 50.0173 269.17 50.1387C269.064 50.2602 268.987 50.4042 268.943 50.5596C268.9 50.7149 268.892 50.8783 268.92 51.0371C268.948 51.1958 269.012 51.3465 269.105 51.4775C269.395 52.0173 269.836 52.1471 270.275 51.6475C271.345 50.5075 272.875 50.8975 274.195 50.5576C273.945 52.2176 274.085 54.4374 271.335 52.5576C270.255 54.3569 268.105 53.2674 266.726 54.2773C266.676 54.2773 266.465 54.2773 266.405 54.1475C266.218 53.9034 266.277 53.731 266.533 53.6279C264.744 52.8199 262.596 52.3368 263.096 49.4375C260.556 51.1275 260.546 51.147 262.096 52.667C262.536 53.087 263.285 53.2076 263.365 53.9775V54.3672C262.981 54.6108 262.521 54.7076 262.071 54.6396C261.621 54.5717 261.21 54.3434 260.915 53.9971C260.305 53.4272 259.705 52.9973 258.915 53.2373C257.924 53.6045 256.843 53.657 255.821 53.3867C254.799 53.1164 253.885 52.5369 253.205 51.7275C252.715 51.1975 252.205 50.7275 251.605 51.1875C248.606 53.2773 245.116 51.0673 241.806 52.5371C241.366 53.1271 243.035 54.2667 241.315 55.1367C241.313 55.1367 240.925 55.1351 240.775 54.6768C239.995 52.1571 238.775 51.8174 236.775 53.5273C236.216 54.0316 235.613 54.4861 234.976 54.8867C234.483 55.0319 233.969 55.0965 233.455 55.0771C234.455 54.2871 235.396 53.7469 235.006 52.2969C230.856 53.1469 226.506 51.0972 222.346 53.2969C221.416 53.7769 220.735 52.747 219.945 52.377C219.155 52.007 218.665 51.5074 217.806 51.8672C215.396 52.8672 215.385 52.8672 213.205 51.8672C212.865 51.7172 212.256 51.3973 212.205 51.4668C210.655 53.6668 208.495 51.7669 206.695 52.2969C205.355 52.6869 203.965 52.9473 202.745 51.7373C202.275 51.2674 201.205 51.2673 200.945 51.6572C199.125 54.2971 197.945 51.8568 196.525 51.2168C196.211 51.0772 195.921 50.9067 195.646 50.7461C197.587 48.7026 200.626 50.1486 202.745 48.4775C203.055 48.2275 203.526 48.4772 203.676 48.9072C203.956 49.6173 203.586 51.4967 204.495 50.9072C205.995 49.8473 207.495 51.2468 208.875 50.1475C210.875 48.5575 213.335 47.7876 215.625 50.0176C215.795 50.2085 216.018 50.344 216.266 50.4072C217.695 50.5371 218.355 49.0671 219.655 48.7471C220.785 48.4571 221.225 50.8669 222.575 49.2275C223.03 48.6662 223.678 48.2947 224.392 48.1855C225.105 48.0765 225.834 48.2369 226.436 48.6367C226.916 48.8867 227.436 49.2071 227.846 48.7871C229.026 47.4774 230.325 47.7869 231.745 48.2168C231.929 48.2776 232.125 48.3003 232.318 48.2822C232.512 48.2641 232.699 48.2061 232.869 48.1123C233.039 48.0184 233.188 47.8902 233.306 47.7363C233.424 47.5823 233.509 47.4052 233.556 47.2168C233.795 46.3471 233.105 45.7868 232.485 45.3369C232.185 45.1169 231.665 44.8576 231.415 44.9775C229.195 46.0372 226.745 45.2673 224.596 45.8271C223.406 46.1371 222.485 46.4472 221.455 45.9072C220.425 45.3673 219.945 44.9078 219.835 46.5977C219.835 47.287 218.756 47.0671 218.346 46.4375C217.936 45.8075 217.345 44.8871 216.565 45.3369C214.565 46.5569 212.865 45.3374 211.035 45.1074C206.885 44.3734 202.615 44.7177 198.636 46.1074C196.186 47.0474 195.406 46.5673 194.556 44.5977C194.35 44.2665 194.1 43.9635 193.815 43.6973L190.585 46.4873C189.695 45.6475 190.435 44.9972 190.585 44.3174C190.735 43.6374 190.175 42.9875 189.915 43.1475C188.115 44.2667 186.055 41.3173 184.195 43.6367C183.795 44.1367 181.675 42.8874 181.995 45.3174C182.115 46.2472 180.815 46.1372 180.105 45.9473C179.026 45.6573 179.545 45.2071 180.035 44.6572C181.145 43.4073 180.216 42.4974 179.136 42.6572C176.306 42.9672 173.586 41.2076 170.756 42.3174C170.395 42.4695 169.999 42.5202 169.611 42.4639C169.224 42.4075 168.858 42.2458 168.556 41.9971C167.486 41.1271 166.315 41.6873 165.205 41.7773C164.095 41.8675 163.855 42.7775 163.905 43.7773C163.955 44.7772 164.726 44.7775 165.516 44.9375C167.176 45.3873 169.086 43.9374 171.096 46.0273C165.376 46.8173 160.095 46.0275 154.915 46.1875C149.609 46.4875 144.291 46.4875 138.985 46.1875C133.755 45.7375 128.535 46.1173 123.315 45.6973C117.945 45.2573 112.575 44.4972 107.165 44.8672C109.705 46.8671 109.725 46.9973 112.655 46.5674C114.115 46.3574 115.055 47.3675 116.275 47.4775C122.505 48.0475 128.746 48.4771 134.966 49.0771C138.966 49.4571 143.036 49.0769 147.105 49.5869C150.865 50.0969 154.775 49.6968 158.605 49.4668C162.435 49.2368 166.316 50.1867 170.186 49.6367C170.344 49.5926 170.512 49.5889 170.673 49.625C170.834 49.6612 170.983 49.7369 171.107 49.8447C171.232 49.9526 171.329 50.0892 171.388 50.2432C171.447 50.3972 171.466 50.5639 171.445 50.7275C171.445 51.3473 170.855 51.4074 170.335 51.5273C169.015 51.8271 167.825 51.2974 166.575 51.1074C165.795 50.9874 164.495 50.5975 164.335 51.8574C164.175 53.1168 165.974 53.2465 166.335 53.1367C168.115 52.5468 169.955 54.4269 171.665 52.8477C172.485 52.0778 173.585 53.1672 174.495 52.8477C175.045 51.4377 172.376 51.4668 173.636 49.6768C175.271 49.9168 176.936 49.8698 178.556 49.5371C178.556 50.2171 178.646 50.5375 178.556 50.6475C177.976 51.0574 177.006 51.197 177.556 52.2969C178.226 53.6269 179.416 52.5972 180.346 52.8672C181.275 53.1369 181.265 52.2475 181.205 51.5576C181.145 50.8676 180.396 49.6676 182.016 49.5576C183.305 49.4877 183.436 50.3575 183.426 51.3574C183.414 51.8682 183.437 52.3791 183.495 52.8867C183.615 53.9867 184.655 55.0575 183.745 56.1875C182.645 57.5468 181.425 55.6671 180.745 55.9971C179.195 56.7769 177.745 56.2368 176.226 56.3867C175.361 56.5505 174.466 56.3893 173.713 55.9336C172.96 55.4777 172.401 54.7593 172.146 53.917C171.906 55.857 171.145 56.4275 169.375 56.3975C166.465 56.3974 163.535 55.8975 160.615 56.3975C160.237 56.5054 159.834 56.4817 159.471 56.3311C159.108 56.1803 158.806 55.9113 158.615 55.5674C158.315 54.9974 157.976 54.8574 157.476 55.3574C155.726 57.1174 153.715 56.6268 151.695 56.0068C151.205 55.8568 150.616 55.4578 150.256 55.6074C148.656 56.2674 147.746 56.1073 147.886 54.1074C147.906 53.9774 147.9 53.8445 147.868 53.7168C147.837 53.5892 147.78 53.4691 147.702 53.3633C147.624 53.2574 147.526 53.1675 147.413 53.0996C147.301 53.0318 147.176 52.9864 147.046 52.9668C146.226 52.7968 145.915 53.4376 145.745 54.0576C145.575 54.6773 145.745 55.0577 145.625 55.5576C145.571 55.7463 145.45 55.9086 145.284 56.0137C145.118 56.1188 144.919 56.159 144.726 56.127C144.533 56.1178 144.35 56.0455 144.203 55.9209C144.057 55.7961 143.955 55.6259 143.915 55.4375C143.729 54.2611 143.861 53.056 144.296 51.9473C142.636 52.5672 141.296 51.9474 140.096 51.9473C139.939 52.1896 139.867 52.4772 139.891 52.7646C139.914 53.052 140.032 53.3235 140.226 53.5371C140.616 54.2371 141.005 55.017 140.226 55.627C139.856 55.899 139.409 56.0459 138.95 56.0459C138.492 56.0458 138.045 55.8989 137.676 55.627C136.926 55.187 137.026 54.8373 137.355 53.8975C137.905 52.3175 136.355 51.8975 135.025 51.8975C133.695 51.8975 133.156 52.157 134.306 53.3369L131.596 55.7168C130.266 54.1869 132.435 53.2268 131.695 51.7168C129.695 52.2567 127.446 50.2376 125.546 52.5869C125.126 53.1069 124.545 52.8672 124.275 52.3672C123.385 50.8772 122.205 50.4872 120.705 51.3672C119.605 52.0369 118.705 51.2576 117.775 51.0176C115.504 50.4375 115.457 50.437 115.826 53.1357C115.372 53.0506 114.933 52.896 114.525 52.6768C111.296 50.147 111.135 50.137 108.705 53.6768C108.235 54.3667 107.815 54.9174 106.936 54.8975C105.646 54.8975 105.635 53.8971 105.565 52.9971C105.495 52.0971 105.145 51.2171 104.025 51.0771C103.385 50.9972 102.665 50.9676 102.445 51.7676C102.226 52.5673 102.446 53.0067 103.445 52.9268C104.095 52.8668 104.445 53.2872 104.165 53.8672C104.072 54.0245 103.943 54.1575 103.788 54.2549C103.633 54.3522 103.458 54.4109 103.275 54.4268C100.445 54.3168 97.6151 54.1573 94.7852 53.9873C94.2153 53.9872 93.7152 53.6171 93.7852 52.9873C93.9652 51.6673 93.8957 51.0475 92.6357 52.3174C92.0558 52.9074 91.4351 53.3874 90.7852 52.3975C90.5652 52.0575 90.0753 51.6075 89.9053 51.8975C88.3853 54.527 86.1152 52.7069 84.3652 52.627C82.3164 52.6508 80.2682 52.5343 78.2354 52.2773C74.5915 51.7463 70.9172 51.4484 67.2354 51.3867C64.444 51.1141 61.6698 50.6874 58.9258 50.1074C51.8058 48.8874 44.7056 47.4468 37.5557 46.4668C33.9957 45.9868 30.3355 46.3775 26.7256 45.9375C24.8503 45.7516 23.0131 45.2866 21.2754 44.5576C17.0254 42.7176 12.3656 43.267 7.97559 42.2471C6.82749 42.0791 5.70059 41.7873 4.61523 41.377C1.74538 39.997 -0.0341393 37.8967 0.00585938 34.4268C-0.105736 29.8611 1.50397 25.4206 4.51562 21.9873C6.3156 19.9873 7.98572 17.8069 9.5957 15.627C10.5956 14.3572 11.4152 14.1778 12.875 14.8477C16.175 16.3576 19.4152 17.8474 22.0352 20.5273C23.6723 22.2048 25.8027 23.3153 28.1152 23.6973C31.6879 24.2309 35.2276 24.9687 38.7158 25.9072C41.0964 26.5173 43.5488 26.8029 46.0059 26.7568C59.1756 26.9868 72.3254 26.8369 85.4951 26.127C93.9251 25.677 102.415 25.1776 110.905 25.7676C115.905 26.1076 120.906 25.7676 125.966 25.7676C134.706 25.8376 143.446 26.0071 152.186 26.0371C156.648 26.0064 161.103 26.4148 165.485 27.2568C168.755 27.9368 171.745 26.8373 174.815 27.4873C175.295 27.5873 175.865 27.3573 176.315 27.4873C180.255 28.8373 184.415 27.6168 188.315 28.4268C191.715 29.1368 195.315 28.4272 198.565 30.0771C199.012 30.3468 199.544 30.4393 200.056 30.3369C203.636 28.7971 207.335 30.2369 210.985 29.8369C214.635 29.4369 218.405 30.2169 222.125 30.377C226.455 30.5469 230.795 30.5776 235.125 30.7275C239.455 30.8775 243.985 31.3173 248.405 31.4473C252.305 31.5673 256.215 31.8771 260.125 31.8271C263.633 31.8062 267.135 32.1412 270.575 32.8271C273.315 33.3571 276.405 32.9872 279.325 32.9072C284.765 32.7672 290.136 33.7176 295.546 33.7676C300.406 33.7676 305.256 33.767 310.105 33.957C311.515 34.027 312.906 34.2269 314.296 34.3369C322.61 35.0293 330.958 35.2261 339.296 34.9268C345.066 34.6768 350.866 35.1477 356.646 35.0977C368.355 35.0077 380.056 35.0369 391.766 34.8369C399.955 34.6969 408.155 34.5269 416.365 34.8369C423.251 35.0647 430.145 34.8078 436.995 34.0674C450.065 32.7474 462.995 30.7671 475.995 28.5771C487.725 26.5772 499.565 25.7875 511.315 24.1475C515.114 23.4575 518.824 22.3435 522.375 20.8271C523.314 20.45 524.268 20.1208 525.214 19.7695L524.678 5.19043ZM151.105 52.0674C150.695 52.1074 150.585 52.4972 150.565 52.8672L150.575 52.8477C150.6 52.996 150.656 53.1377 150.736 53.2646C150.817 53.3917 150.923 53.5012 151.047 53.5869C151.171 53.6726 151.311 53.7328 151.458 53.7637C151.605 53.7945 151.757 53.7963 151.905 53.7676C152.045 53.7676 152.246 53.4073 152.226 53.2373C152.146 52.5973 151.855 52.0374 151.105 52.0674ZM115.945 53.1572L115.846 53.2773C115.839 53.2294 115.833 53.1821 115.826 53.1357C115.866 53.1432 115.905 53.1509 115.945 53.1572ZM160.976 53.1973C159.876 50.4474 158.116 50.7673 156.216 51.6572L156.213 51.6621C157.677 52.1717 158.872 53.5494 160.976 53.1973ZM156.04 51.7227C155.17 51.8218 154.282 51.1501 153.386 51.6973C154.595 53.5257 154.614 53.556 156.04 51.7227ZM97.9355 52.0977C97.8755 51.4777 97.775 50.8173 96.875 51.0273L96.9053 51.0068C96.4653 51.2168 95.6554 51.1872 95.9053 51.7871C96.1553 52.3871 96.8057 52.5671 97.3457 52.7871C97.7254 52.9268 97.9653 52.4575 97.9355 52.0977ZM107.495 50.3076C107.308 50.2693 107.113 50.3062 106.954 50.4111C106.795 50.5161 106.684 50.6804 106.646 50.8672C106.526 51.2672 106.646 51.6071 107.146 51.5771C107.331 51.5728 107.508 51.4995 107.643 51.3721C107.777 51.2446 107.86 51.0717 107.875 50.8867C107.755 50.6867 107.655 50.3476 107.495 50.3076ZM195.646 50.7461C195.636 50.7565 195.625 50.7667 195.615 50.7773L195.525 50.6768C195.565 50.6997 195.605 50.7226 195.646 50.7461ZM363.146 50.7471C363.096 50.7449 363.048 50.7376 362.999 50.7324C363.011 50.6756 363.023 50.6203 363.035 50.5674L363.146 50.7471ZM367.845 50.6465C367.832 50.6741 367.821 50.7023 367.806 50.7275V50.6172C367.819 50.6266 367.832 50.6369 367.845 50.6465ZM385.035 47.5068C383.931 47.2 382.751 47.3256 381.735 47.8574C381.654 47.9422 381.595 48.0459 381.563 48.1592C381.532 48.2726 381.529 48.3921 381.556 48.5068C382.266 49.7768 383.556 49.3072 384.556 49.4072C385.086 49.3873 385.795 49.557 386.105 48.7773L386.195 48.8477C386.164 48.532 386.035 48.233 385.827 47.9932C385.62 47.7535 385.343 47.5835 385.035 47.5068ZM266.195 42.6973C265.865 44.0572 267.595 43.8474 267.195 44.8174C266.795 45.787 265.856 45.417 265.136 45.5068C264.741 45.5583 264.339 45.4907 263.982 45.3125C263.626 45.1343 263.332 44.8537 263.136 44.5068C261.816 42.567 260.555 43.3571 258.936 44.2471C257.316 45.1371 255.016 42.6774 253.936 44.0674C252.856 45.4573 252.325 45.1374 251.365 44.3574C250.655 43.7775 249.986 44.1774 249.216 44.3574C247.694 44.5879 246.154 44.6778 244.615 44.627C243.225 44.6271 241.695 45.9974 240.535 44.8574C238.865 43.2175 238.195 46.6269 236.655 45.3369C235.935 44.7373 235.216 45.3374 234.926 46.1973C234.746 46.7873 234.386 47.417 235.096 47.917C235.806 48.4169 236.485 48.7971 237.195 48.1572C237.905 47.5172 238.906 46.5472 239.886 47.1572C241.836 48.397 243.696 47.8368 245.676 47.5068C247.656 47.1769 249.546 46.9869 251.046 48.7168C251.476 49.2168 252.186 49.7167 252.596 48.8867C254.086 45.8073 257.115 47.2767 259.275 46.8867C261.435 46.4967 263.926 46.4267 266.046 47.8867C266.496 48.1966 267.595 48.2772 267.865 47.9775C269.175 46.5375 270.726 46.8777 272.146 47.3477C273.565 47.8176 274.085 47.3469 274.285 46.0869C274.515 44.647 273.575 43.3374 272.476 43.9072C270.026 45.1072 268.426 43.037 266.186 42.627L266.195 42.6973ZM314.835 45.167C313.375 44.7669 312.015 43.6478 310.775 44.5977C309.376 45.6776 311.515 46.8375 311.105 48.0674C311.106 48.1333 311.132 48.2164 311.161 48.2998C311.934 46.8203 313.25 45.6962 314.835 45.167ZM285.565 47.6074C285.562 47.5964 285.559 47.5852 285.556 47.5742C285.595 47.5483 285.636 47.5232 285.676 47.4971L285.565 47.6074ZM301.745 44.417C301.165 44.417 300.586 44.5473 300.556 45.1768C300.526 45.3678 300.535 45.5637 300.583 45.751C300.631 45.9381 300.717 46.1134 300.835 46.2666C300.953 46.4198 301.1 46.548 301.269 46.6426C301.437 46.7372 301.623 46.7967 301.815 46.8174C302.645 46.8974 302.905 46.1371 302.955 45.5371C303.045 44.7672 302.426 44.4875 301.766 44.4375L301.745 44.417ZM196.905 42.7871C196.375 42.7871 195.795 42.8672 195.835 43.5068C195.875 44.1468 196.486 44.5068 197.146 44.5068C197.805 44.5068 198.145 44.4271 198.146 43.7773C198.176 43.0375 197.486 42.9575 196.926 42.8076L196.905 42.7871ZM161.756 42.4473C161.696 41.9073 161.286 41.3277 160.756 41.6475C159.736 42.1175 158.225 41.9572 158.085 43.4072L158.195 43.4775C158.355 44.2673 158.835 44.4069 159.365 44.167C160.275 43.767 161.986 44.4071 161.756 42.4473ZM215.396 41.4971C214.896 41.5771 214.295 41.7372 214.275 42.2871C214.275 43.1869 215.055 43.1072 215.625 43.0771C216.195 43.0471 216.696 42.927 216.546 42.207C216.396 41.4871 215.945 41.5576 215.415 41.5576L215.396 41.4971ZM211.365 41.9971C211.074 41.9092 210.761 41.9227 210.478 42.0352C210.194 42.1477 209.958 42.353 209.806 42.6172H209.785C210.032 42.8053 210.335 42.9072 210.646 42.9072C210.956 42.9072 211.259 42.8053 211.506 42.6172C211.575 42.6148 211.505 42.017 211.365 41.9971ZM372.865 38.2568C372.826 37.3317 371.739 37.7808 371.028 37.8809C371.166 38.0679 371.276 38.3124 371.455 38.3975C371.965 38.6375 372.905 39.1968 372.865 38.2568ZM151.016 32.6875C150.016 32.6875 148.626 32.0173 148.016 33.5068C147.986 33.6278 147.987 33.7545 148.019 33.875C148.05 33.9954 148.11 34.1063 148.195 34.1973C149.135 35.0573 150.366 34.6677 151.466 34.8477C151.656 34.8474 151.935 34.6474 152.115 34.4775C153.195 33.4775 154.116 34.1475 154.796 34.8975C155.476 35.6474 155.726 36.717 157.006 35.4072C157.876 34.5075 158.745 35.1277 158.775 36.3076C158.846 39.0471 160.586 38.3076 162.176 38.3076C162.056 37.5076 161.695 37.4568 161.315 37.4668C161.122 37.4991 160.923 37.484 160.737 37.4219C160.551 37.3597 160.383 37.2524 160.248 37.1104C160.113 36.9683 160.015 36.7952 159.962 36.6064C159.909 36.4177 159.903 36.2188 159.945 36.0273C160.035 35.0275 160.885 34.8468 161.665 34.8867C164.555 35.0267 167.415 35.5768 170.355 35.4268C171.739 35.3074 173.012 35.3358 174.138 34.3213C172.415 32.6354 170.628 34.3131 169.016 33.9375C163.096 32.5575 157.066 32.6775 151.016 32.6875ZM192.938 36.5254C192.735 36.399 192.493 36.3496 192.256 36.3867C191.936 36.3867 191.846 36.597 192.006 36.877C192.166 37.157 192.376 37.8772 193.006 37.6172C193.166 37.5569 193.246 37.2775 193.355 37.0977L193.365 37.0771C193.294 36.8482 193.142 36.652 192.938 36.5254ZM185.556 35.5771C185.256 35.7371 184.856 35.9675 184.796 36.2275C184.696 36.7073 185.115 36.7773 185.485 36.7373L185.495 36.6973C185.875 36.5773 186.156 36.337 186.056 35.917C186.055 35.7671 185.646 35.5276 185.556 35.5771ZM179.936 34.7275C178.696 34.4375 177.676 33.8775 176.096 34.3975L176.075 34.417C177.485 35.417 178.476 36.1874 179.936 34.7275ZM146.875 33.5576C144.795 32.7477 143.545 32.1371 142.335 33.457C142.273 33.5293 142.228 33.614 142.201 33.7051C142.174 33.7962 142.166 33.8921 142.179 33.9863C142.191 34.0804 142.223 34.1709 142.272 34.252C142.322 34.3331 142.388 34.4029 142.466 34.457C143.876 35.4568 145.055 34.7174 146.875 33.5576ZM136.825 32.8477C136.375 32.8477 136.085 33.0874 136.115 33.5273C136.112 33.7231 136.184 33.9128 136.315 34.0576C136.447 34.2025 136.63 34.2923 136.825 34.3076C137.009 34.3553 137.205 34.3311 137.372 34.2402C137.539 34.1493 137.666 33.9979 137.726 33.8174C137.876 33.2074 137.355 32.9672 136.815 32.8672L136.825 32.8477Z" fill="white"/>
</svg>
