<svg width="398" height="493" viewBox="0 0 398 493" fill="none" xmlns="http://www.w3.org/2000/svg">
<path d="M392.529 492.992C396.375 493.151 398.951 489.088 397.167 485.678L373.925 441.26C372.14 437.85 367.333 437.65 365.272 440.901L357.268 453.524C356.11 453.143 354.802 453.337 353.615 452.671C350.246 450.932 347.001 448.961 343.905 446.772C341.625 445.082 339.526 443.052 337.136 441.492C329.396 436.422 325.636 428.491 321.726 420.621C319.792 416.927 318.121 413.101 316.726 409.171C314.606 402.761 314.115 396.382 317.415 389.942C319.815 385.272 321.025 380.052 322.505 374.942C323.985 369.832 324.885 364.942 327.285 360.322C328.985 357.082 331.016 354.022 332.726 350.762C334.436 347.502 334.595 343.992 335.075 340.532C335.695 335.972 334.285 331.672 333.075 327.322C332.729 326.082 332.137 324.924 331.335 323.917C330.533 322.911 329.536 322.075 328.405 321.461C325.592 319.75 322.917 317.821 320.405 315.692C310.345 307.962 298.885 303.072 287.155 298.692C281.655 296.632 276.035 294.882 270.565 292.692C265.565 290.752 260.245 290.531 255.255 288.881C247.925 286.441 240.255 285.451 232.806 283.621C227.176 282.241 226.946 281.622 230.936 277.272C239.696 267.672 248.066 257.672 257.726 248.932C261.486 245.532 264.455 241.491 267.835 237.791C268.975 236.551 270.085 234.721 268.275 232.911C268.157 232.813 268.063 232.688 268.001 232.547C267.939 232.406 267.909 232.253 267.916 232.099C267.923 231.945 267.966 231.795 268.04 231.66C268.114 231.526 268.219 231.409 268.346 231.322C269.855 230.172 269.735 228.982 268.695 227.552C268.155 226.802 268.855 225.901 268.825 225.041C268.836 223.806 268.399 222.609 267.596 221.671C267.313 221.418 267.085 221.111 266.925 220.767C266.765 220.423 266.677 220.05 266.665 219.671C267.055 214.381 264.115 210.501 261.025 206.751C259.028 204.58 256.533 202.927 253.755 201.932C252.708 201.586 251.624 201.368 250.525 201.282C248.815 201.022 247.075 203.572 245.356 201.282C243.285 201.377 241.211 201.225 239.176 200.831C237.266 200.517 235.339 200.31 233.405 200.211C225.115 200.021 216.825 199.372 208.505 199.802C203.005 200.082 197.505 200.142 191.995 200.572C184.315 201.172 176.585 201.241 168.995 202.711C167.452 203.001 165.875 203.055 164.315 202.871C160.895 202.481 160.535 202.171 161.045 198.701C161.425 196.162 162.145 193.702 162.315 191.102C162.483 186.35 163.106 181.625 164.176 176.992C166.056 169.792 167.295 162.412 169.775 155.392C171.125 151.562 172.246 147.701 173.266 143.791C173.576 142.562 174.586 141.572 174.976 140.222C175.536 138.335 175.785 136.369 175.715 134.402C175.655 132.402 176.546 130.582 176.186 128.402C175.937 126.486 176.035 124.542 176.476 122.661C177.386 118.662 175.956 114.661 175.896 110.661C175.816 110.056 175.538 109.493 175.106 109.062C172.106 105.832 168.405 103.392 165.106 100.532C164.764 100.268 164.365 100.088 163.941 100.006C163.518 99.9246 163.08 99.944 162.665 100.062C159.769 100.627 156.782 100.517 153.936 99.7415C153.218 99.5558 152.475 99.488 151.735 99.5413C142.625 100.441 133.465 99.7013 124.335 100.541C115.685 101.331 106.965 101.321 98.335 102.091C93.0051 102.571 87.6549 102.602 82.335 102.992C81.6451 102.992 80.7949 103.412 80.335 102.612C80.1831 102.274 80.1282 101.901 80.1758 101.534C80.2235 101.166 80.3723 100.819 80.6055 100.532C83.6055 95.7216 86.085 90.6713 88.835 85.7513C90.0471 83.3508 91.3822 81.0143 92.835 78.7513C95.095 75.5413 96.8356 71.9319 99.2256 68.932C100.706 67.102 102.585 65.5117 103.945 63.4818C104.512 62.6914 104.903 61.789 105.093 60.8353C105.282 59.8817 105.266 58.8984 105.045 57.9515C104.385 54.4817 104.326 50.9517 103.846 47.3919C102.756 39.5519 98.0053 35.0118 91.1953 32.0218C85.5454 29.5418 79.4652 28.5817 73.5752 26.9417C66.8553 25.0717 60.0649 23.402 53.795 20.222C50.5252 18.5521 47.3455 16.7219 44.0957 15.012C39.2158 12.4421 34.3055 9.94184 29.4356 7.35188C27.2812 6.18757 25.2957 4.73379 23.5352 3.03157C20.8553 0.491705 17.6555 -0.798213 13.8457 0.531569C11.8458 1.24154 9.53546 0.761597 7.60551 2.33137C4.89551 4.53137 3.05515 7.452 0.745154 9.972C-0.534453 11.362 0.125032 13.5517 0.584998 15.2816C1.07654 17.1761 1.33255 19.1242 1.34574 21.0814C1.41574 25.6014 2.84574 27.2114 7.34574 28.0814C7.80571 28.1614 8.43513 28.2421 8.66508 28.5521C9.89505 30.2219 11.0449 29.4412 12.0049 28.4212C12.9649 27.4013 13.8456 27.4221 14.6856 28.5521C15.8755 30.1317 17.8453 30.4516 19.4551 31.1615C26.085 34.0714 32.3652 37.6615 38.9151 40.7015C39.6951 41.0615 40.4158 41.5317 41.1758 41.9417C42.1756 42.4718 42.5357 43.7018 43.4356 44.2318C44.0053 44.5612 43.3158 42.4819 44.7256 43.1019C45.4957 43.4318 46.8456 43.662 46.7256 44.3519C46.5558 45.5315 47.3153 45.6114 47.8653 45.7913C50.9439 46.9841 54.0931 47.986 57.295 48.7913C61.515 49.6513 65.4457 51.2813 69.5157 52.5413C72.2956 53.4013 75.0756 54.2912 77.8555 55.1712C77.4912 57.0583 76.6935 58.8354 75.5254 60.3616C71.7254 66.2116 67.9356 72.052 64.1856 77.932C62.3356 80.8419 59.4748 82.9317 57.7149 85.8616C57.3537 86.3482 56.8142 86.6724 56.2149 86.762C54.484 87.3411 53.0325 88.5468 52.1455 90.1419C51.6357 91.0018 51.2552 92.0211 50.2256 92.2113C48.7856 92.4913 48.365 93.6816 47.625 94.6116C47.1752 95.1716 47.0952 96.1812 46.2754 96.2513C43.0554 96.5413 43.2258 98.632 43.4258 101.012C43.5557 102.602 43.2449 104.132 41.2051 104.732C40.3754 104.972 39.8455 106.112 39.0557 106.652C37.5557 107.652 37.3351 108.782 38.125 110.402C39.0564 112.493 39.5531 114.752 39.585 117.041C39.655 118.331 39.8053 119.261 38.4356 120.131C37.4356 120.771 38.4353 124.792 39.8653 125.972C40.8652 126.792 41.0653 127.802 41.5752 128.822C42.7252 131.122 43.7256 133.732 45.9756 135.352C47.2354 136.262 48.4152 137.601 49.835 135.352C50.445 134.352 51.8358 134.621 52.9258 134.711C55.0266 135.008 57.162 134.955 59.2452 134.552C59.723 134.418 60.2242 134.386 60.7149 134.461C66.7148 135.641 72.7953 134.192 78.8653 134.602C83.5252 134.912 88.3152 133.922 92.9952 133.822C96.6252 133.742 100.276 133.371 103.856 133.081C106.645 132.861 109.525 133.491 112.255 132.581C112.467 132.462 112.711 132.41 112.954 132.431C113.197 132.452 113.427 132.547 113.615 132.701C114.525 133.561 115.196 132.562 115.806 132.512C118.035 132.322 120.265 131.622 122.545 132.022C123.135 132.122 123.955 132.501 124.295 132.242C126.385 130.702 128.835 131.752 130.965 131.182C133.735 130.432 136.545 130.542 139.285 130.442C141.655 130.352 144.116 130.521 146.936 130.371C145.645 133.57 144.719 136.905 144.176 140.312C144.116 140.672 144.175 141.312 143.955 141.362C140.796 142.792 140.955 144.722 142.705 147.291C143.275 148.131 141.995 148.211 141.295 148.291C140.865 148.291 140.296 147.952 140.096 148.612C139.896 149.272 140.446 149.561 141.096 149.831C142.856 150.561 142.995 151.092 141.495 152.072C140.415 152.762 140.015 153.072 140.945 154.152C141.355 154.632 141.035 155.261 140.945 155.871C140.035 159.871 138.856 163.812 138.016 167.802C137.586 169.802 137.505 172.092 136.755 174.022C135.771 176.444 136.238 179.117 135.051 181.432L134.565 180.982C134.155 180.602 134.185 179.592 133.565 179.732C132.945 179.872 132.035 180.662 132.275 181.322C132.935 183.112 132.036 184.642 131.806 186.322C130.916 192.722 129.246 198.962 127.726 205.232C127.406 206.552 126.885 207.822 127.785 209.102C127.965 209.354 128.08 209.647 128.116 209.954C128.153 210.262 128.111 210.574 127.995 210.862C126.455 214.621 129.285 217.941 129.085 221.591C129.025 222.591 132.085 222.941 133.085 221.661C134.085 220.381 134.145 220.472 134.085 221.852C134.036 222.602 137.005 224.081 133.655 224.251C133.517 224.431 133.417 224.638 133.362 224.858C133.307 225.078 133.297 225.308 133.335 225.532C133.866 226.65 134.798 227.527 135.945 227.992C141.085 229.552 141.095 229.542 144.315 232.722C144.667 233.149 145.106 233.497 145.603 233.742C146.099 233.986 146.642 234.123 147.195 234.142C148.179 234.105 149.154 234.337 150.016 234.812C150.482 235.095 151.02 235.239 151.565 235.227C152.111 235.214 152.643 235.046 153.096 234.742C154.786 233.742 156.576 232.812 158.596 233.992C161.686 232.282 165.595 235.231 168.455 232.331C168.543 232.248 168.65 232.187 168.767 232.153C168.883 232.118 169.006 232.11 169.125 232.131C171.525 233.001 173.806 232.191 176.186 232.001C177.966 231.841 179.805 231.062 181.275 231.272C183.755 231.622 186.076 231.151 188.426 231.001C193.506 230.671 198.596 230.801 203.686 230.371C209.342 229.856 215.035 229.882 220.686 230.451C225.055 230.921 229.405 230.681 233.745 231.081C234.575 231.161 235.495 230.982 236.205 232.081C233.885 235.081 231.715 238.292 228.715 240.862C227.165 242.192 225.585 243.492 224.715 245.552C224.082 246.733 223.194 247.758 222.115 248.552C214.745 254.902 206.805 262.552 201.215 270.552C199.558 272.816 198.29 275.341 197.465 278.022C196.565 281.072 197.056 284.092 197.186 287.022C197.288 289.199 197.532 291.367 197.915 293.512C198.415 296.292 198.216 299.302 201.096 301.112C201.526 301.382 201.626 302.182 201.896 302.732C202.664 304.327 203.747 305.75 205.078 306.916C206.41 308.083 207.963 308.97 209.646 309.522C212.702 310.712 215.91 311.472 219.176 311.782C220.152 311.762 221.098 312.12 221.815 312.782C222.615 313.552 223.815 314.321 224.965 313.032C225.535 312.412 226.365 312.862 227.065 312.732C228.405 312.492 228.955 314.601 229.405 314.211C230.575 313.211 231.405 313.621 232.405 314.211C233.158 314.625 234.029 314.769 234.875 314.621C235.475 314.621 236.206 314.242 236.646 314.472C240.735 316.542 245.516 316.472 249.525 318.692C250.625 319.292 251.686 318.572 252.856 318.951C258.275 320.741 263.605 322.801 269.215 323.951C270.005 324.111 271.215 324.162 271.215 325.541C274.631 325.741 277.92 326.91 280.695 328.911C281.325 329.381 281.775 329.101 282.295 329.211C284.625 329.661 287.246 329.541 288.806 331.841C289.466 332.841 290.075 331.912 290.695 331.942C292.205 332.022 292.925 334.281 293.695 333.942C295.115 333.342 296.005 333.831 297.075 334.331C301.405 336.331 304.695 339.962 309.075 341.822C310.485 342.422 310.646 343.532 309.676 344.822C309.01 345.7 308.548 346.717 308.325 347.796C308.102 348.876 308.123 349.991 308.386 351.062C308.786 353.132 307.205 354.701 306.295 356.381C305.615 357.661 304.425 358.382 306.115 360.052C307.265 361.162 306.215 363.052 305.575 364.682C304.255 363.102 303.676 364.582 302.686 364.932C300.926 365.552 300.376 366.052 301.556 367.642C301.706 367.832 302.045 368.431 301.375 368.341C299.015 368.011 299.255 369.492 299.535 370.932C299.596 371.231 299.591 371.54 299.521 371.837C299.45 372.134 299.314 372.412 299.125 372.652C297.985 374.232 297.915 376.252 297.125 377.862C294.855 382.702 295.355 388.011 293.995 393.001C293.237 395.694 293.332 398.555 294.266 401.192C294.756 402.492 294.336 403.872 294.596 405.192C294.856 406.512 293.676 407.921 295.436 408.791C295.606 408.871 295.685 409.601 295.535 409.791C293.685 411.851 295.245 413.551 296.315 415.001C297.545 416.641 296.145 418.622 297.465 420.192C298.465 421.362 297.785 423.761 300.255 423.871C300.455 423.871 300.836 424.522 300.766 424.762C300.146 427.032 301.375 428.531 302.415 430.381C303.455 432.231 303.845 434.202 304.835 436.032C306.575 439.262 309.206 441.922 310.636 445.362C311.068 446.293 311.818 447.036 312.746 447.459C313.063 448.834 313.739 450.101 314.705 451.131C322.865 459.901 331.705 467.761 342.875 472.591C343.478 472.848 344.096 473.101 344.61 473.486L338.427 483.239C336.366 486.489 338.596 490.751 342.441 490.911L392.529 492.992ZM78.1055 64.0911C77.8155 64.5811 77.5852 65.2914 76.8252 64.8714C76.3356 64.5915 76.4953 63.982 76.6153 63.5521C76.6378 63.3302 76.7074 63.1151 76.8194 62.9222C76.9315 62.7292 77.084 62.5616 77.2657 62.432C77.4472 62.3025 77.6544 62.2135 77.8731 62.1702C78.0921 62.127 78.3179 62.1311 78.5352 62.182C78.6472 62.8501 78.493 63.5354 78.1055 64.0911ZM64.5049 83.4915C64.175 82.7117 63.9654 82.4913 64.0254 82.2913C64.1924 81.715 64.4486 81.168 64.7852 80.6712C67.2945 77.2999 69.4997 73.7126 71.375 69.9515C71.975 68.7516 72.7051 67.7919 74.2149 68.1116C73.9549 67.2518 74.2154 66.7018 75.1651 66.6116C75.515 66.6116 75.9452 66.6116 75.8653 67.1214C75.7353 67.8214 75.1349 68.0214 74.5049 68.1214C74.3855 68.1361 74.2649 68.1361 74.1455 68.1214C74.2655 68.4714 74.5851 68.9714 74.4551 69.1214C73.164 70.8942 72.1145 72.8312 71.335 74.8812C71.0208 75.3971 70.5668 75.8135 70.0254 76.0814C69.6854 76.2814 69.2955 76.0821 69.1455 76.8021C68.6154 79.6518 66.3048 81.2016 64.5049 83.4915ZM76.4453 74.722C77.1053 73.762 77.3653 72.9715 78.5352 72.4915L78.585 72.472C78.405 73.9017 77.9552 74.552 76.4453 74.722ZM72.2051 80.012C72.145 80.0113 72.0256 79.8316 72.0254 79.7318C72.1254 77.7318 74.3655 78.4917 75.1856 77.3919L75.7354 77.8616C74.5254 78.8616 73.6451 79.862 72.2051 80.012ZM68.4952 83.3118C68.7951 82.6619 69.0353 81.9413 69.9151 81.8812C69.9758 81.8895 70.034 81.9138 70.083 81.9505C70.1318 81.9871 70.1704 82.0355 70.1953 82.0911C70.2553 82.9411 69.4852 83.2315 69.0352 83.7415C68.866 83.8724 68.6851 83.987 68.4952 84.0853V83.3118ZM138.808 103.748C137.967 103.75 137.188 105.023 136.005 103.972H135.995C137.03 103.158 137.94 103.533 138.808 103.748ZM126.976 104.961C126.597 105.001 126.214 105.005 125.835 104.972C125.975 104.142 126.265 103.971 126.615 103.881C127.275 103.681 128.196 103.202 128.426 104.152C128.706 105.361 127.546 104.832 126.976 104.961ZM116.335 105.661C116.065 105.661 115.576 105.481 115.516 105.282C115.386 104.752 115.616 104.352 116.306 104.272C116.506 104.372 116.995 104.462 117.045 104.661C117.083 104.775 117.094 104.896 117.076 105.014C117.059 105.132 117.013 105.245 116.944 105.342C116.875 105.439 116.783 105.519 116.678 105.575C116.572 105.63 116.454 105.66 116.335 105.661ZM134.436 189.602C133.436 189.442 132.345 189.171 132.575 187.911C132.989 185.654 132.695 183.068 135.005 181.548C135.609 181.88 135.993 182.544 135.525 182.992C134.106 184.101 134.386 185.381 134.646 186.841C134.799 187.291 134.86 187.769 134.824 188.243C134.788 188.718 134.656 189.18 134.436 189.602ZM133.445 193.131C133.035 193.131 132.855 192.731 132.865 192.371C132.875 192.011 133.045 191.371 133.575 191.371C134.105 191.371 134.056 191.741 134.136 192.091L134.146 192.131C134.146 192.631 134.005 193.131 133.445 193.131ZM133.005 198.802C130.415 197.682 130.416 197.682 132.615 194.802C132.725 196.152 133.515 197.192 133.005 198.802ZM214.803 203.8C214.495 203.977 214.13 204.028 213.785 203.942C213.335 203.852 213.125 203.242 213.295 202.732C213.326 202.584 213.388 202.445 213.476 202.323C213.564 202.201 213.677 202.098 213.807 202.023C213.937 201.947 214.082 201.9 214.231 201.884C214.381 201.868 214.533 201.885 214.676 201.932C215.166 202.062 215.565 202.272 215.436 202.992C215.337 203.333 215.11 203.623 214.803 203.8ZM230.436 203.862C230.318 203.866 230.2 203.846 230.089 203.805C229.978 203.763 229.876 203.7 229.79 203.619C229.704 203.539 229.634 203.441 229.585 203.333C229.536 203.226 229.509 203.11 229.505 202.992C229.505 202.432 229.856 202.151 230.386 202.171C230.619 202.175 230.843 202.26 231.02 202.411C231.197 202.563 231.316 202.772 231.356 203.001L231.386 202.992C231.355 203.225 231.243 203.441 231.069 203.6C230.896 203.759 230.671 203.852 230.436 203.862ZM208.329 203.825C208.24 203.833 208.151 203.817 208.07 203.778C207.99 203.739 207.923 203.678 207.874 203.603C207.826 203.528 207.798 203.441 207.795 203.352C207.768 203.11 207.821 202.865 207.943 202.655C208.065 202.446 208.25 202.282 208.471 202.185C208.682 202.274 209.036 202.343 209.065 202.472C209.127 202.707 209.113 202.955 209.025 203.181C208.937 203.407 208.779 203.6 208.575 203.732C208.503 203.785 208.418 203.816 208.329 203.825ZM204.204 203.777C203.811 203.89 203.395 203.903 202.995 203.812C202.895 203.792 202.835 203.672 202.505 203.442C203.195 202.572 203.886 201.982 205.056 202.552C205.133 202.631 205.191 202.728 205.224 202.833C205.257 202.939 205.264 203.052 205.245 203.161C204.956 203.451 204.598 203.663 204.204 203.777ZM219.556 203.512C219.446 204.192 218.945 204.211 218.455 204.161C217.965 204.112 217.116 204.161 217.096 203.331C217.076 202.502 217.566 202.262 218.315 202.451C218.935 202.601 219.515 202.782 219.585 203.522L219.556 203.512ZM194.335 203.961C193.735 204.171 193.465 203.732 193.335 203.232C193.302 203.056 193.336 202.875 193.428 202.722C193.52 202.569 193.665 202.455 193.835 202.402C194.019 202.403 194.197 202.467 194.339 202.583C194.481 202.7 194.578 202.861 194.615 203.041C194.755 203.401 194.735 203.821 194.335 203.961ZM238.465 205.032C237.955 205.032 237.515 204.941 237.465 204.371C237.415 203.802 237.835 203.661 238.245 203.501L238.295 203.472C238.775 203.582 239.296 203.722 239.146 204.352C239.136 204.529 239.061 204.696 238.936 204.822C238.81 204.947 238.642 205.022 238.465 205.032ZM242.896 232.852C242.275 233.997 241.645 234.586 240.493 234.324C241.089 233.718 241.336 232.619 242.896 232.852ZM235.726 244.492C239.556 240.752 242.936 237.331 245.436 233.161C243.738 238.024 240.271 242.069 235.726 244.492ZM233.075 241.501C235.267 238.946 237.092 236.045 240.267 234.465C239.401 237.08 236.172 240.407 233.075 241.501ZM297.226 391.742C296.993 391.689 296.783 391.564 296.627 391.384C296.471 391.204 296.375 390.979 296.356 390.742C296.366 390.592 296.556 390.402 296.646 390.272C296.87 390.316 297.079 390.416 297.254 390.563C297.429 390.71 297.564 390.899 297.646 391.112C297.815 391.432 297.705 391.831 297.226 391.742ZM295.595 396.344C295.513 396.336 295.434 396.308 295.365 396.262C295.081 396.089 294.868 395.818 294.766 395.501C294.666 395.071 295.006 394.942 295.396 394.992H295.386C295.856 395.132 296.246 395.402 296.136 395.942C296.12 396.023 296.084 396.098 296.032 396.162C295.98 396.226 295.912 396.277 295.836 396.309C295.76 396.34 295.677 396.352 295.595 396.344ZM296.495 407.091C296.265 407.231 296.095 407.092 296.075 406.822C296.03 406.589 296.045 406.348 296.118 406.122C296.192 405.897 296.322 405.693 296.495 405.532C296.725 405.352 296.995 405.342 297.085 405.591C297.275 406.271 296.835 406.692 296.465 407.102L296.495 407.091ZM305.945 431.512C304.555 430.682 303.405 429.772 304.585 427.512C305.185 429.222 305.576 430.382 305.976 431.532L305.945 431.512ZM309.096 439.501C308.514 439.11 308.04 438.577 307.722 437.952C307.403 437.328 307.25 436.632 307.275 435.932C308.305 436.912 309.186 437.672 309.096 439.501ZM317.556 451.222C315.722 450.056 314.719 448.282 313.035 447.425C313.15 446.39 312.202 445.512 312.556 444.222C314.825 446.222 315.966 448.852 317.556 451.222ZM332.766 464.652C331.183 464.254 329.815 463.262 328.945 461.881V461.862C330.517 462.293 331.877 463.286 332.766 464.652ZM345.402 472.237C345.162 472.111 345.018 471.824 344.896 471.591C344.841 471.529 344.805 471.452 344.795 471.37C344.785 471.288 344.799 471.205 344.837 471.131C344.875 471.058 344.934 470.998 345.007 470.958C345.08 470.919 345.163 470.903 345.245 470.911C345.6 470.862 345.841 471.026 345.996 471.3L345.402 472.237Z" fill="white"/>
</svg>
