<svg width="1920" height="635" viewBox="0 0 1920 635" fill="none" xmlns="http://www.w3.org/2000/svg">
<g clip-path="url(#clip0_484_871)">
<g filter="url(#filter0_g_484_871)">
<g clip-path="url(#clip1_484_871)">
<path d="M1328.19 212.123C1333.29 209.18 1338.39 206.237 1343.64 203.205C1345.32 206.118 1347 209.03 1348.73 212.031C1350.92 210.77 1353.1 209.509 1355.35 208.209C1356.62 210.394 1357.88 212.579 1359.18 214.829C1362.09 213.148 1365 211.466 1368 209.733C1369.26 211.918 1370.53 214.103 1371.83 216.353C1374.01 215.092 1376.2 213.831 1378.45 212.531C1381.39 217.629 1384.33 222.726 1387.36 227.978C1389.55 226.717 1391.73 225.456 1393.98 224.156C1395.25 226.341 1396.51 228.525 1397.81 230.776C1400.72 229.094 1403.63 227.413 1406.63 225.68C1408.31 228.593 1410 231.506 1411.73 234.507C1413.91 233.245 1416.1 231.984 1418.35 230.685C1420.87 235.054 1423.39 239.423 1425.99 243.925C1428.18 242.663 1430.36 241.402 1432.61 240.103C1435.56 245.2 1438.5 250.298 1441.53 255.549C1443.72 254.288 1445.9 253.027 1448.15 251.727C1452.36 259.009 1456.56 266.291 1460.89 273.794C1463.8 272.112 1466.72 270.431 1469.72 268.698C1473.92 275.98 1478.13 283.262 1482.46 290.765C1484.64 289.504 1486.83 288.242 1489.08 286.943C1493.28 294.225 1497.49 301.507 1501.82 309.01C1504 307.748 1506.19 306.487 1508.44 305.188C1510.96 309.557 1513.48 313.926 1516.08 318.428C1519 316.746 1521.91 315.064 1524.91 313.332C1527.85 318.429 1530.8 323.527 1533.83 328.778C1536.01 327.517 1538.2 326.256 1540.45 324.956C1545.91 334.423 1551.38 343.89 1557.01 353.643C1559.2 352.382 1561.38 351.121 1563.63 349.821C1569.1 359.288 1574.56 368.755 1580.19 378.508C1583.11 376.826 1586.02 375.145 1589.02 373.412C1591.96 378.509 1594.91 383.607 1597.94 388.859C1600.12 387.598 1602.31 386.336 1604.56 385.037C1605.82 387.221 1607.08 389.406 1608.38 391.657C1610.57 390.395 1612.75 389.134 1615 387.835C1617.94 392.932 1620.89 398.03 1623.92 403.281C1626.83 401.6 1629.74 399.918 1632.75 398.185C1635.69 403.283 1638.63 408.38 1641.66 413.632C1638.75 415.314 1635.84 416.996 1632.84 418.728C1631.16 415.815 1629.47 412.903 1627.74 409.902C1625.56 411.163 1623.37 412.424 1621.12 413.724C1619.86 411.539 1618.6 409.354 1617.3 407.104C1615.11 408.365 1612.93 409.626 1610.68 410.926C1609.42 408.741 1608.16 406.556 1606.86 404.306C1601.76 407.249 1596.66 410.192 1591.41 413.224C1589.73 410.311 1588.05 407.398 1586.31 404.397C1581.22 407.34 1576.12 410.283 1570.87 413.315C1569.61 411.131 1568.34 408.946 1567.04 406.695C1564.86 407.957 1562.68 409.218 1560.42 410.517C1559.16 408.333 1557.9 406.148 1556.6 403.897C1554.42 405.159 1552.23 406.42 1549.98 407.719C1548.3 404.807 1546.62 401.894 1544.89 398.893C1539.79 401.836 1534.69 404.779 1529.44 407.811C1525.66 401.257 1521.87 394.703 1517.97 387.951C1520.16 386.689 1522.34 385.428 1524.59 384.129C1521.65 379.031 1518.71 373.934 1515.68 368.682C1513.49 369.943 1511.31 371.204 1509.06 372.504C1500.65 357.94 1492.24 343.376 1483.57 328.37C1481.39 329.631 1479.21 330.893 1476.95 332.192C1474.01 327.095 1471.07 321.997 1468.04 316.745C1470.22 315.484 1472.41 314.223 1474.66 312.923C1473.4 310.739 1472.13 308.554 1470.83 306.303C1466.47 308.826 1462.1 311.348 1457.59 313.947C1454.65 308.85 1451.71 303.753 1448.68 298.501C1453.05 295.978 1457.41 293.455 1461.92 290.856C1459.39 286.487 1456.87 282.118 1454.27 277.616C1452.09 278.878 1449.9 280.139 1447.65 281.438C1446.39 279.254 1445.13 277.069 1443.83 274.818C1441.65 276.08 1439.46 277.341 1437.21 278.64C1435.53 275.728 1433.85 272.815 1432.11 269.814C1424.83 274.018 1417.55 278.222 1410.05 282.554C1415.51 292.021 1420.98 301.487 1426.61 311.241C1430.98 308.718 1435.35 306.196 1439.85 303.597C1442.79 308.694 1445.74 313.792 1448.77 319.044C1446.58 320.305 1444.4 321.566 1442.15 322.866C1445.09 327.963 1448.03 333.061 1451.07 338.312C1453.25 337.051 1455.43 335.79 1457.69 334.49C1464.41 346.142 1471.14 357.793 1478.07 369.797C1483.17 366.854 1488.27 363.911 1493.52 360.879C1499.4 371.074 1505.29 381.269 1511.35 391.773C1509.17 393.034 1506.98 394.295 1504.73 395.595C1503.05 392.682 1501.37 389.769 1499.64 386.768C1496.72 388.45 1493.81 390.132 1490.81 391.864C1489.55 389.68 1488.29 387.495 1486.99 385.244C1484.8 386.505 1482.62 387.767 1480.37 389.066C1479.11 386.882 1477.85 384.697 1476.55 382.446C1474.36 383.707 1472.18 384.969 1469.93 386.268C1466.98 381.171 1464.04 376.073 1461.01 370.821C1455.91 373.764 1450.81 376.708 1445.56 379.74C1428.74 350.611 1411.93 321.483 1394.6 291.472C1389.5 294.415 1384.41 297.358 1379.15 300.39C1376.63 296.021 1374.11 291.652 1371.51 287.15C1369.32 288.412 1367.14 289.673 1364.89 290.972C1359 280.778 1353.12 270.583 1347.05 260.079C1344.87 261.34 1342.68 262.601 1340.43 263.901C1337.91 259.532 1335.39 255.162 1332.79 250.661C1329.88 252.342 1326.96 254.024 1323.96 255.757C1322.28 252.844 1320.6 249.931 1318.87 246.93C1326.15 242.726 1333.43 238.522 1340.93 234.19C1336.73 226.908 1332.52 219.626 1328.19 212.123Z" fill="black"/>
<path d="M1042.2 221.297C1044.39 220.036 1046.57 218.774 1048.82 217.475C1050.5 220.388 1052.19 223.3 1053.92 226.302C1056.83 224.62 1059.74 222.938 1062.75 221.205C1065.27 225.575 1067.79 229.944 1070.39 234.446C1072.57 233.184 1074.76 231.923 1077.01 230.623C1079.95 235.721 1082.9 240.818 1085.93 246.07C1083.74 247.332 1081.56 248.593 1079.31 249.892C1082.25 254.99 1085.19 260.087 1088.23 265.339C1085.31 267.021 1082.4 268.703 1079.4 270.435C1080.66 272.62 1081.92 274.805 1083.22 277.055C1088.32 274.112 1093.42 271.169 1098.67 268.137C1099.93 270.322 1101.19 272.506 1102.49 274.757C1097.39 277.7 1092.3 280.643 1087.04 283.675C1089.99 288.773 1092.93 293.87 1095.96 299.122C1098.87 297.441 1101.79 295.759 1104.79 294.026C1106.05 296.211 1107.31 298.395 1108.61 300.646C1103.51 303.589 1098.42 306.532 1093.16 309.564C1094.85 312.477 1096.53 315.39 1098.26 318.391C1093.16 321.334 1088.07 324.277 1082.81 327.309C1084.07 329.494 1085.34 331.679 1086.64 333.929C1084.45 335.191 1082.27 336.452 1080.02 337.752C1082.54 342.121 1085.06 346.49 1087.66 350.992C1089.84 349.73 1092.03 348.469 1094.28 347.17C1095.96 350.082 1097.64 352.995 1099.38 355.996C1095.01 358.519 1090.64 361.041 1086.14 363.64C1084.45 360.728 1082.77 357.815 1081.04 354.814C1078.13 356.495 1075.21 358.177 1072.21 359.91C1070.95 357.725 1069.69 355.541 1068.39 353.29C1064.02 355.812 1059.65 358.335 1055.15 360.934C1053.89 358.749 1052.63 356.565 1051.33 354.314C1048.42 355.996 1045.5 357.677 1042.5 359.41C1041.24 357.225 1039.98 355.041 1038.68 352.79C1036.5 354.051 1034.31 355.313 1032.06 356.612C1030.38 353.699 1028.7 350.786 1026.96 347.785C1024.78 349.047 1022.59 350.308 1020.34 351.607C1019.08 349.423 1017.82 347.238 1016.52 344.987C1014.34 346.249 1012.15 347.51 1009.9 348.809C1008.64 346.625 1007.38 344.44 1006.08 342.189C1003.17 343.871 1000.25 345.553 997.253 347.286C995.571 344.373 993.889 341.46 992.156 338.459C989.972 339.72 987.787 340.981 985.536 342.281C984.275 340.096 983.014 337.912 981.714 335.661C979.53 336.922 977.345 338.183 975.094 339.483C973.833 337.298 972.572 335.114 971.272 332.863C973.457 331.602 975.641 330.34 977.892 329.041C970.745 316.661 963.597 304.282 956.234 291.527C958.418 290.266 960.603 289.004 962.854 287.705C964.115 289.89 965.376 292.074 966.676 294.325C971.773 291.382 976.871 288.439 982.123 285.407C985.066 290.504 988.009 295.602 991.041 300.854C998.323 296.649 1005.6 292.445 1013.11 288.113C1011.85 285.929 1010.59 283.744 1009.29 281.493C1011.47 280.232 1013.65 278.971 1015.91 277.671C1017.17 279.856 1018.43 282.04 1019.73 284.291C1021.91 283.03 1024.1 281.769 1026.35 280.469C1025.09 278.284 1023.83 276.1 1022.53 273.849C1025.44 272.167 1028.35 270.486 1031.35 268.753C1029.67 265.84 1027.99 262.927 1026.26 259.926C1028.44 258.665 1030.63 257.404 1032.88 256.104C1030.35 251.735 1027.83 247.366 1025.23 242.864C1032.51 238.66 1039.8 234.455 1047.3 230.124C1045.62 227.211 1043.94 224.298 1042.2 221.297Z" fill="black"/>
<path d="M1337.11 227.57C1340.03 225.889 1342.94 224.207 1345.94 222.474C1347.2 224.659 1348.46 226.843 1349.76 229.094C1351.95 227.833 1354.13 226.572 1356.38 225.272C1360.59 232.554 1364.79 239.836 1369.12 247.339C1371.31 246.078 1373.49 244.816 1375.74 243.517C1377.42 246.43 1379.11 249.343 1380.84 252.344C1383.75 250.662 1386.66 248.98 1389.67 247.247C1390.93 249.432 1392.19 251.617 1393.49 253.868C1395.67 252.606 1397.86 251.345 1400.11 250.045C1401.37 252.23 1402.63 254.415 1403.93 256.666C1409.03 253.722 1414.13 250.779 1419.38 247.747C1423.58 255.029 1427.79 262.311 1432.12 269.814C1424.84 274.018 1417.55 278.223 1410.05 282.554C1415.52 292.021 1420.98 301.488 1426.61 311.241C1430.98 308.719 1435.35 306.196 1439.85 303.597C1442.8 308.695 1445.74 313.792 1448.77 319.044C1446.59 320.305 1444.4 321.567 1442.15 322.866C1445.09 327.964 1448.04 333.061 1451.07 338.313C1453.25 337.052 1455.44 335.79 1457.69 334.491C1464.42 346.142 1471.14 357.793 1478.07 369.798C1483.17 366.855 1488.27 363.912 1493.52 360.88C1499.41 371.075 1505.29 381.269 1511.36 391.773C1509.17 393.035 1506.99 394.296 1504.74 395.595C1503.06 392.682 1501.37 389.77 1499.64 386.769C1496.73 388.45 1493.82 390.132 1490.81 391.865C1489.55 389.68 1488.29 387.495 1486.99 385.245C1484.81 386.506 1482.62 387.767 1480.37 389.067C1479.11 386.882 1477.85 384.697 1476.55 382.447C1474.37 383.708 1472.18 384.969 1469.93 386.269C1466.99 381.171 1464.04 376.074 1461.01 370.822C1455.91 373.765 1450.82 376.708 1445.56 379.74C1428.75 350.612 1411.93 321.484 1394.6 291.473C1389.51 294.416 1384.41 297.359 1379.16 300.391C1376.63 296.022 1374.11 291.652 1371.51 287.151C1369.33 288.412 1367.14 289.673 1364.89 290.973C1359.01 280.778 1353.12 270.583 1347.06 260.079C1344.87 261.341 1342.69 262.602 1340.44 263.901C1337.91 259.532 1335.39 255.163 1332.79 250.661C1329.88 252.343 1326.97 254.025 1323.97 255.757C1322.28 252.845 1320.6 249.932 1318.87 246.931C1326.15 242.726 1333.43 238.522 1340.94 234.19C1339.67 232.006 1338.41 229.821 1337.11 227.57Z" fill="black"/>
<path d="M1403.52 306.92C1408.61 303.977 1413.71 301.034 1418.96 298.002C1421.49 302.371 1424.01 306.74 1426.61 311.242C1430.98 308.719 1435.35 306.197 1439.85 303.598C1442.79 308.695 1445.73 313.793 1448.76 319.044C1446.58 320.306 1444.4 321.567 1442.14 322.867C1445.09 327.964 1448.03 333.061 1451.06 338.313C1453.25 337.052 1455.43 335.791 1457.68 334.491C1464.41 346.143 1471.14 357.794 1478.07 369.798C1483.17 366.855 1488.26 363.912 1493.51 360.88C1499.4 371.075 1505.29 381.27 1511.35 391.774C1509.17 393.035 1506.98 394.296 1504.73 395.596C1503.05 392.683 1501.37 389.77 1499.63 386.769C1496.72 388.451 1493.81 390.132 1490.81 391.865C1489.55 389.681 1488.29 387.496 1486.99 385.245C1484.8 386.506 1482.62 387.768 1480.37 389.067C1479.1 386.883 1477.84 384.698 1476.54 382.447C1474.36 383.708 1472.17 384.97 1469.92 386.269C1466.98 381.172 1464.04 376.074 1461.01 370.822C1455.91 373.765 1450.81 376.708 1445.56 379.741C1431.68 355.71 1417.81 331.679 1403.52 306.92Z" fill="black"/>
<path d="M1468.04 316.746C1472.41 314.224 1476.78 311.701 1481.28 309.102C1485.48 316.384 1489.69 323.666 1494.02 331.169C1496.93 329.487 1499.85 327.805 1502.85 326.073C1505.79 331.17 1508.73 336.268 1511.76 341.519C1513.95 340.258 1516.13 338.997 1518.38 337.697C1522.59 344.979 1526.79 352.262 1531.12 359.764C1533.31 358.503 1535.49 357.242 1537.74 355.942C1540.69 361.04 1543.63 366.137 1546.66 371.389C1544.48 372.65 1542.29 373.912 1540.04 375.211C1545.51 384.678 1550.97 394.144 1556.61 403.898C1554.42 405.159 1552.24 406.421 1549.99 407.72C1548.3 404.807 1546.62 401.894 1544.89 398.893C1539.79 401.836 1534.69 404.779 1529.44 407.812C1525.66 401.258 1521.87 394.704 1517.98 387.951C1520.16 386.69 1522.35 385.429 1524.6 384.129C1521.65 379.032 1518.71 373.934 1515.68 368.682C1513.49 369.944 1511.31 371.205 1509.06 372.505C1500.65 357.94 1492.24 343.376 1483.58 328.371C1481.39 329.632 1479.21 330.893 1476.96 332.193C1474.01 327.095 1471.07 321.998 1468.04 316.746Z" fill="black"/>
<path d="M161.656 214.789C166.025 212.266 170.395 209.744 174.896 207.145C176.158 209.329 177.419 211.514 178.718 213.765C186.001 209.561 193.283 205.356 200.785 201.025C202.467 203.937 204.149 206.85 205.881 209.851C208.794 208.17 211.707 206.488 214.708 204.755C215.969 206.94 217.231 209.124 218.53 211.375C222.9 208.853 227.269 206.33 231.77 203.731C233.032 205.916 234.293 208.1 235.593 210.351C240.69 207.408 245.787 204.465 251.039 201.433C253.982 206.53 256.925 211.628 259.958 216.88C262.142 215.618 264.327 214.357 266.578 213.058C267.839 215.242 269.1 217.427 270.4 219.678C277.682 215.473 284.964 211.269 292.467 206.937C295.41 212.035 298.353 217.132 301.385 222.384C304.298 220.703 307.21 219.021 310.212 217.288C312.734 221.657 315.257 226.027 317.856 230.528C314.943 232.21 312.03 233.892 309.029 235.624C307.768 233.44 306.506 231.255 305.207 229.004C300.838 231.527 296.468 234.049 291.967 236.648C290.705 234.464 289.444 232.279 288.145 230.028C285.232 231.71 282.319 233.392 279.318 235.125C277.636 232.212 275.954 229.299 274.222 226.298C272.037 227.559 269.853 228.82 267.602 230.12C266.34 227.935 265.079 225.751 263.78 223.5C258.682 226.443 253.585 229.386 248.333 232.418C245.39 227.321 242.447 222.223 239.415 216.971C235.045 219.494 230.676 222.016 226.174 224.615C224.913 222.431 223.652 220.246 222.352 217.995C219.44 219.677 216.527 221.359 213.526 223.091C212.264 220.907 211.003 218.722 209.704 216.471C205.334 218.994 200.965 221.517 196.463 224.116C195.202 221.931 193.941 219.746 192.641 217.496C187.544 220.439 182.446 223.382 177.195 226.414C175.513 223.501 173.831 220.588 172.098 217.587C169.914 218.848 167.729 220.11 165.478 221.409C164.217 219.225 162.956 217.04 161.656 214.789Z" fill="black"/>
<path d="M1039.5 252.283C1042.42 250.602 1045.33 248.92 1048.33 247.187C1050.01 250.1 1051.69 253.013 1053.43 256.014C1057.79 253.492 1062.16 250.969 1066.67 248.37C1072.13 257.837 1077.6 267.303 1083.23 277.057C1088.33 274.114 1093.42 271.171 1098.67 268.139C1099.94 270.323 1101.2 272.508 1102.5 274.759C1097.4 277.702 1092.3 280.645 1087.05 283.677C1089.99 288.774 1092.94 293.872 1095.97 299.124C1098.88 297.442 1101.79 295.76 1104.79 294.028C1106.06 296.212 1107.32 298.397 1108.62 300.648C1101.33 304.852 1094.05 309.056 1086.55 313.388C1085.29 311.203 1084.03 309.019 1082.73 306.768C1072.53 312.654 1062.34 318.54 1051.83 324.604C1050.57 322.42 1049.31 320.235 1048.01 317.984C1043.64 320.507 1039.27 323.029 1034.77 325.628C1033.09 322.716 1031.41 319.803 1029.68 316.802C1044.24 308.393 1058.8 299.984 1073.81 291.321C1069.61 284.039 1065.4 276.757 1061.07 269.254C1063.25 267.993 1065.44 266.732 1067.69 265.432C1066.43 263.247 1065.17 261.063 1063.87 258.812C1058.77 261.755 1053.67 264.698 1048.42 267.73C1045.48 262.633 1042.53 257.535 1039.5 252.283Z" fill="black"/>
<path d="M1337.11 227.57C1340.03 225.889 1342.94 224.207 1345.94 222.474C1347.2 224.659 1348.46 226.844 1349.76 229.094C1351.95 227.833 1354.13 226.572 1356.38 225.272C1360.59 232.554 1364.79 239.836 1369.12 247.339C1371.31 246.078 1373.49 244.817 1375.74 243.517C1377.42 246.43 1379.1 249.343 1380.84 252.344C1383.75 250.662 1386.66 248.98 1389.66 247.248C1390.93 249.432 1392.19 251.617 1393.49 253.868C1395.67 252.606 1397.86 251.345 1400.11 250.046C1401.37 252.23 1402.63 254.415 1403.93 256.666C1398.83 259.609 1393.73 262.552 1388.48 265.584C1390.16 268.497 1391.85 271.41 1393.58 274.411C1391.39 275.672 1389.21 276.933 1386.96 278.233C1385.28 275.32 1383.59 272.407 1381.86 269.406C1379.68 270.667 1377.49 271.929 1375.24 273.228C1372.72 268.859 1370.2 264.49 1367.6 259.988C1364.68 261.67 1361.77 263.351 1358.77 265.084C1354.57 257.802 1350.36 250.52 1346.03 243.017C1343.85 244.279 1341.66 245.54 1339.41 246.839C1337.73 243.927 1336.05 241.014 1334.31 238.013C1336.5 236.751 1338.68 235.49 1340.93 234.191C1339.67 232.006 1338.41 229.821 1337.11 227.57Z" fill="black"/>
<path d="M998.641 161.125C1000.83 159.864 1003.01 158.602 1005.26 157.303C1006.52 159.488 1007.78 161.672 1009.08 163.923C1011.27 162.662 1013.45 161.4 1015.7 160.101C1016.96 162.285 1018.23 164.47 1019.52 166.721C1024.62 163.778 1029.72 160.835 1034.97 157.803C1036.65 160.716 1038.34 163.628 1040.07 166.629C1045.17 163.686 1050.26 160.743 1055.51 157.711C1053.83 154.798 1052.15 151.886 1050.42 148.884C1052.6 147.623 1054.79 146.362 1057.04 145.062C1058.72 147.975 1060.4 150.888 1062.13 153.889C1064.32 152.628 1066.5 151.367 1068.75 150.067C1071.28 154.436 1073.8 158.806 1076.4 163.307C1072.03 165.83 1067.66 168.352 1063.16 170.951C1061.9 168.767 1060.64 166.582 1059.34 164.331C1056.42 166.013 1053.51 167.695 1050.51 169.427C1051.77 171.612 1053.03 173.797 1054.33 176.047C1044.87 181.513 1035.4 186.979 1025.65 192.61C1021.44 185.328 1017.24 178.046 1012.9 170.543C1010.72 171.804 1008.54 173.066 1006.28 174.365C1003.76 169.996 1001.24 165.627 998.641 161.125Z" fill="black"/>
<path d="M656.99 231.862C659.903 230.18 662.816 228.498 665.817 226.766C668.339 231.135 670.862 235.504 673.461 240.006C677.83 237.483 682.2 234.961 686.701 232.361C688.383 235.274 690.065 238.187 691.797 241.188C694.71 239.507 697.623 237.825 700.624 236.092C701.885 238.277 703.147 240.461 704.446 242.712C706.631 241.451 708.815 240.19 711.066 238.89C713.589 243.259 716.111 247.629 718.71 252.13C713.613 255.073 708.516 258.016 703.264 261.048C704.945 263.961 706.627 266.874 708.36 269.875C706.175 271.136 703.99 272.398 701.74 273.697C697.535 266.415 693.331 259.133 688.999 251.63C686.815 252.892 684.63 254.153 682.379 255.452C681.118 253.268 679.857 251.083 678.557 248.832C675.644 250.514 672.732 252.196 669.73 253.929C668.049 251.016 666.367 248.103 664.634 245.102C660.265 247.624 655.896 250.147 651.394 252.746C650.133 250.561 648.872 248.377 647.572 246.126C651.941 243.603 656.311 241.081 660.812 238.482C659.551 236.297 658.29 234.112 656.99 231.862Z" fill="black"/>
<path d="M1328.2 212.123C1333.29 209.18 1338.39 206.237 1343.64 203.205C1345.32 206.118 1347.01 209.03 1348.74 212.032C1350.92 210.77 1353.11 209.509 1355.36 208.209C1356.62 210.394 1357.88 212.579 1359.18 214.83C1362.09 213.148 1365.01 211.466 1368.01 209.733C1369.27 211.918 1370.53 214.103 1371.83 216.353C1368.92 218.035 1366 219.717 1363 221.45C1364.68 224.362 1366.37 227.275 1368.1 230.276C1371.01 228.595 1373.92 226.913 1376.93 225.18C1379.45 229.549 1381.97 233.919 1384.57 238.42C1386.75 237.159 1388.94 235.898 1391.19 234.598C1394.13 239.696 1397.08 244.793 1400.11 250.045C1397.92 251.306 1395.74 252.568 1393.49 253.867C1392.23 251.683 1390.97 249.498 1389.67 247.247C1386.75 248.929 1383.84 250.611 1380.84 252.343C1379.16 249.43 1377.48 246.518 1375.74 243.516C1373.56 244.778 1371.37 246.039 1369.12 247.339C1364.92 240.056 1360.71 232.774 1356.38 225.272C1354.2 226.533 1352.01 227.794 1349.76 229.094C1348.5 226.909 1347.24 224.725 1345.94 222.474C1343.03 224.155 1340.11 225.837 1337.11 227.57C1334.17 222.472 1331.23 217.375 1328.2 212.123Z" fill="black"/>
<path d="M244.42 205.255C246.605 203.994 248.79 202.733 251.041 201.433C253.984 206.531 256.927 211.628 259.959 216.88C262.143 215.619 264.328 214.358 266.579 213.058C267.84 215.243 269.101 217.427 270.401 219.678C277.683 215.474 284.965 211.27 292.468 206.938C295.411 212.035 298.354 217.133 301.386 222.385C304.299 220.703 307.212 219.021 310.213 217.288C312.735 221.658 315.258 226.027 317.857 230.529C314.944 232.21 312.031 233.892 309.03 235.625C307.769 233.44 306.508 231.255 305.208 229.005C300.839 231.527 296.47 234.05 291.968 236.649C290.707 234.464 289.445 232.28 288.146 230.029C285.233 231.711 282.32 233.392 279.319 235.125C277.637 232.212 275.956 229.299 274.223 226.298C272.038 227.559 269.854 228.821 267.603 230.12C266.342 227.936 265.08 225.751 263.781 223.5C258.683 226.443 253.586 229.386 248.334 232.418C247.073 230.234 245.811 228.049 244.512 225.798C247.425 224.117 250.338 222.435 253.339 220.702C250.396 215.605 247.453 210.507 244.42 205.255Z" fill="black"/>
<path d="M1095.47 328.834C1104.93 323.368 1114.4 317.902 1124.15 312.271C1125.42 314.456 1126.68 316.64 1127.98 318.891C1133.07 315.948 1138.17 313.005 1143.42 309.973C1144.68 312.158 1145.95 314.342 1147.25 316.593C1142.15 319.536 1137.05 322.479 1131.8 325.511C1133.48 328.424 1135.16 331.337 1136.89 334.338C1131.8 337.281 1126.7 340.224 1121.45 343.256C1122.71 345.441 1123.97 347.625 1125.27 349.876C1117.99 354.081 1110.71 358.285 1103.2 362.617C1101.94 360.432 1100.68 358.247 1099.38 355.997C1104.48 353.054 1109.58 350.111 1114.83 347.078C1113.15 344.166 1111.46 341.253 1109.73 338.252C1107.55 339.513 1105.36 340.774 1103.11 342.074C1100.59 337.704 1098.07 333.335 1095.47 328.834Z" fill="black"/>
<path d="M873.173 162.949C875.358 161.688 877.543 160.426 879.793 159.127C881.475 162.04 883.157 164.953 884.89 167.954C894.356 162.488 903.823 157.022 913.576 151.391C916.099 155.76 918.622 160.13 921.221 164.631C906.657 173.04 892.092 181.449 877.087 190.112C875.826 187.927 874.564 185.743 873.265 183.492C871.08 184.753 868.896 186.014 866.645 187.314C865.383 185.129 864.122 182.945 862.823 180.694C867.92 177.751 873.018 174.808 878.269 171.776C876.588 168.863 874.906 165.95 873.173 162.949Z" fill="black"/>
<path d="M1464.83 377.441C1474.29 371.976 1483.76 366.51 1493.52 360.879C1499.4 371.074 1505.29 381.269 1511.35 391.773C1509.17 393.034 1506.98 394.295 1504.73 395.595C1503.05 392.682 1501.37 389.769 1499.64 386.768C1496.72 388.45 1493.81 390.131 1490.81 391.864C1489.55 389.679 1488.29 387.495 1486.99 385.244C1484.8 386.505 1482.62 387.767 1480.37 389.066C1479.11 386.882 1477.84 384.697 1476.54 382.446C1474.36 383.707 1472.18 384.969 1469.92 386.268C1468.24 383.355 1466.56 380.443 1464.83 377.441Z" fill="black"/>
<path d="M1404.55 323.982C1406.73 322.721 1408.91 321.459 1411.17 320.16C1422.52 339.821 1433.87 359.483 1445.56 379.74C1440.47 382.683 1435.37 385.626 1430.12 388.659C1427.17 383.561 1424.23 378.464 1421.2 373.212C1424.11 371.53 1427.03 369.848 1430.03 368.116C1421.62 353.552 1413.21 338.987 1404.55 323.982Z" fill="black"/>
<path d="M1388.48 265.584C1398.67 259.698 1408.87 253.812 1419.37 247.748C1423.57 255.03 1427.78 262.312 1432.11 269.814C1427.01 272.757 1421.92 275.7 1416.66 278.733C1415.4 276.548 1414.14 274.363 1412.84 272.113C1410.66 273.374 1408.47 274.635 1406.22 275.935C1404.96 273.75 1403.7 271.565 1402.4 269.315C1399.49 270.996 1396.57 272.678 1393.57 274.411C1391.89 271.498 1390.21 268.585 1388.48 265.584Z" fill="black"/>
<path d="M1029.67 316.801C1041.32 310.074 1052.97 303.347 1064.98 296.416C1066.66 299.329 1068.34 302.242 1070.07 305.243C1067.89 306.504 1065.71 307.766 1063.45 309.065C1064.72 311.25 1065.98 313.434 1067.28 315.685C1062.18 318.628 1057.08 321.571 1051.83 324.603C1050.57 322.419 1049.31 320.234 1048.01 317.983C1043.64 320.506 1039.27 323.029 1034.77 325.628C1033.09 322.715 1031.4 319.802 1029.67 316.801Z" fill="black"/>
<path d="M1393.57 274.41C1396.49 272.729 1399.4 271.047 1402.4 269.314C1403.66 271.499 1404.92 273.683 1406.22 275.934C1408.41 274.673 1410.59 273.412 1412.84 272.112C1414.1 274.297 1415.36 276.481 1416.66 278.732C1414.48 279.994 1412.29 281.255 1410.04 282.554C1412.99 287.652 1415.93 292.749 1418.96 298.001C1413.86 300.944 1408.77 303.887 1403.52 306.919C1400.57 301.822 1397.63 296.724 1394.6 291.473C1396.78 290.211 1398.97 288.95 1401.22 287.65C1398.69 283.281 1396.17 278.912 1393.57 274.41Z" fill="black"/>
<path d="M1082.82 327.311C1085.73 325.629 1088.64 323.947 1091.64 322.215C1095.43 328.768 1099.21 335.322 1103.11 342.075C1105.29 340.813 1107.48 339.552 1109.73 338.253C1111.41 341.166 1113.09 344.078 1114.82 347.079C1109.73 350.022 1104.63 352.965 1099.38 355.998C1097.7 353.085 1096.01 350.172 1094.28 347.171C1092.1 348.432 1089.91 349.693 1087.66 350.993C1085.14 346.624 1082.62 342.255 1080.02 337.753C1082.2 336.492 1084.39 335.23 1086.64 333.931C1085.38 331.746 1084.11 329.562 1082.82 327.311Z" fill="black"/>
<path d="M1029.77 337.344C1032.68 335.662 1035.59 333.98 1038.59 332.248C1039.85 334.432 1041.11 336.617 1042.41 338.868C1044.6 337.606 1046.78 336.345 1049.03 335.046C1050.72 337.958 1052.4 340.871 1054.13 343.872C1059.23 340.929 1064.33 337.986 1069.58 334.954C1070.84 337.139 1072.1 339.323 1073.4 341.574C1063.2 347.46 1053.01 353.346 1042.51 359.411C1038.3 352.129 1034.1 344.846 1029.77 337.344Z" fill="black"/>
<path d="M1114.21 279.762C1121.49 275.557 1128.78 271.353 1136.28 267.021C1137.54 269.206 1138.8 271.391 1140.1 273.641C1137.92 274.903 1135.73 276.164 1133.48 277.464C1136.42 282.561 1139.37 287.658 1142.4 292.91C1137.3 295.853 1132.2 298.796 1126.95 301.829C1122.75 294.547 1118.54 287.264 1114.21 279.762Z" fill="black"/>
<path d="M161.656 214.789C166.025 212.266 170.395 209.744 174.896 207.145C176.158 209.329 177.419 211.514 178.718 213.765C186.001 209.561 193.283 205.356 200.785 201.025C202.467 203.937 204.149 206.85 205.881 209.851C203.697 211.113 201.512 212.374 199.261 213.673C200.523 215.858 201.784 218.043 203.083 220.294C200.899 221.555 198.714 222.816 196.463 224.116C195.202 221.931 193.941 219.746 192.641 217.496C187.544 220.439 182.446 223.382 177.195 226.414C175.513 223.501 173.831 220.588 172.098 217.587C169.914 218.848 167.729 220.11 165.478 221.409C164.217 219.225 162.956 217.04 161.656 214.789Z" fill="black"/>
<path d="M496.219 254.07C505.685 248.605 515.152 243.139 524.906 237.508C527.849 242.605 530.792 247.703 533.824 252.955C528.726 255.898 523.629 258.841 518.377 261.873C517.116 259.688 515.855 257.504 514.555 255.253C510.186 257.775 505.817 260.298 501.315 262.897C499.633 259.984 497.951 257.071 496.219 254.07Z" fill="black"/>
<path d="M858.023 309.98C863.121 307.037 868.218 304.094 873.47 301.062C874.732 303.247 875.993 305.431 877.292 307.682C879.477 306.421 881.662 305.16 883.912 303.86C885.174 306.045 886.435 308.229 887.734 310.48C890.647 308.799 893.56 307.117 896.561 305.384C898.243 308.297 899.925 311.21 901.657 314.211C896.56 317.154 891.462 320.097 886.211 323.129C884.529 320.216 882.847 317.303 881.114 314.302C878.93 315.564 876.745 316.825 874.494 318.124C873.233 315.94 871.972 313.755 870.672 311.504C867.759 313.186 864.847 314.868 861.846 316.601C860.584 314.416 859.323 312.231 858.023 309.98Z" fill="black"/>
<path d="M1027.33 144.562C1029.51 143.301 1031.7 142.04 1033.95 140.74C1035.21 142.925 1036.47 145.11 1037.77 147.36C1040.68 145.679 1043.6 143.997 1046.6 142.264C1049.54 147.362 1052.48 152.459 1055.52 157.711C1050.42 160.654 1045.32 163.597 1040.07 166.629C1035.86 159.347 1031.66 152.065 1027.33 144.562Z" fill="black"/>
<path d="M1115.65 531.965C1122.2 528.181 1128.76 524.397 1135.51 520.499C1138.03 524.868 1140.55 529.237 1143.15 533.739C1136.6 537.523 1130.05 541.306 1123.29 545.205C1120.77 540.836 1118.25 536.466 1115.65 531.965Z" fill="black"/>
<path d="M1448.68 298.5C1453.05 295.977 1457.42 293.455 1461.92 290.856C1464.86 295.953 1467.81 301.051 1470.84 306.303C1466.47 308.825 1462.1 311.348 1457.6 313.947C1454.65 308.849 1451.71 303.752 1448.68 298.5Z" fill="black"/>
<path d="M1061.07 269.254C1065.44 266.731 1069.81 264.209 1074.31 261.61C1077.25 266.707 1080.2 271.805 1083.23 277.057C1078.86 279.579 1074.49 282.102 1069.99 284.701C1067.05 279.603 1064.1 274.506 1061.07 269.254Z" fill="black"/>
<path d="M1218.34 169.629C1220.52 168.368 1222.71 167.106 1224.96 165.807C1226.22 167.991 1227.48 170.176 1228.78 172.427C1230.96 171.166 1233.15 169.904 1235.4 168.605C1238.34 173.702 1241.28 178.8 1244.32 184.052C1242.13 185.313 1239.95 186.574 1237.7 187.874C1236.44 185.689 1235.17 183.504 1233.87 181.254C1231.69 182.515 1229.5 183.776 1227.25 185.076C1224.31 179.978 1221.37 174.881 1218.34 169.629Z" fill="black"/>
<path d="M718.706 252.131C720.891 250.87 723.075 249.608 725.326 248.309C727.008 251.222 728.69 254.135 730.422 257.136C733.335 255.454 736.248 253.772 739.249 252.04C740.51 254.224 741.772 256.409 743.071 258.66C735.789 262.864 728.507 267.068 721.004 271.4C719.743 269.215 718.482 267.031 717.182 264.78C719.367 263.519 721.551 262.257 723.802 260.958C722.12 258.045 720.439 255.132 718.706 252.131Z" fill="black"/>
<path d="M1106.82 537.061C1109.73 535.379 1112.65 533.697 1115.65 531.964C1119.85 539.246 1124.06 546.529 1128.39 554.031C1125.47 555.713 1122.56 557.395 1119.56 559.127C1115.36 551.845 1111.15 544.563 1106.82 537.061Z" fill="black"/>
<path d="M1063.45 309.064C1070.74 304.86 1078.02 300.656 1085.52 296.324C1088.04 300.693 1090.57 305.063 1093.16 309.564C1090.98 310.826 1088.79 312.087 1086.54 313.386C1085.28 311.202 1084.02 309.017 1082.72 306.766C1077.62 309.709 1072.53 312.652 1067.28 315.685C1066.01 313.5 1064.75 311.315 1063.45 309.064Z" fill="black"/>
<path d="M595.586 140.797C605.053 135.331 614.519 129.866 624.273 124.234C625.534 126.419 626.795 128.604 628.095 130.855C618.628 136.32 609.162 141.786 599.408 147.417C598.147 145.232 596.885 143.048 595.586 140.797Z" fill="black"/>
<path d="M533.82 252.955C538.918 250.012 544.015 247.069 549.267 244.037C552.21 249.134 555.153 254.232 558.185 259.484C555.273 261.165 552.36 262.847 549.359 264.58C547.677 261.667 545.995 258.754 544.262 255.753C542.078 257.014 539.893 258.276 537.642 259.575C536.381 257.391 535.12 255.206 533.82 252.955Z" fill="black"/>
<path d="M1464.83 377.441C1469.2 374.919 1473.57 372.396 1478.07 369.797C1481.01 374.895 1483.95 379.992 1486.99 385.244C1484.8 386.505 1482.62 387.767 1480.37 389.066C1479.11 386.882 1477.84 384.697 1476.54 382.446C1474.36 383.707 1472.18 384.969 1469.92 386.268C1468.24 383.355 1466.56 380.443 1464.83 377.441Z" fill="black"/>
<path d="M1393.58 274.41C1396.49 272.728 1399.4 271.047 1402.4 269.314C1403.67 271.499 1404.93 273.683 1406.23 275.934C1408.41 274.673 1410.6 273.412 1412.85 272.112C1414.11 274.297 1415.37 276.481 1416.67 278.732C1411.57 281.675 1406.47 284.618 1401.22 287.65C1398.7 283.281 1396.18 278.912 1393.58 274.41Z" fill="black"/>
<path d="M1380.84 252.344C1383.75 250.662 1386.66 248.98 1389.66 247.248C1390.92 249.432 1392.19 251.617 1393.48 253.868C1395.67 252.606 1397.85 251.345 1400.1 250.046C1401.37 252.23 1402.63 254.415 1403.93 256.666C1398.83 259.609 1393.73 262.552 1388.48 265.584C1385.96 261.215 1383.43 256.845 1380.84 252.344Z" fill="black"/>
<path d="M1533.83 328.779C1536.01 327.518 1538.2 326.257 1540.45 324.957C1544.65 332.239 1548.86 339.521 1553.19 347.024C1551 348.285 1548.82 349.547 1546.57 350.846C1542.36 343.564 1538.16 336.282 1533.83 328.779Z" fill="black"/>
<path d="M1096.94 163.217C1104.22 159.012 1111.5 154.808 1119 150.476C1120.27 152.661 1121.53 154.846 1122.83 157.097C1115.54 161.301 1108.26 165.505 1100.76 169.837C1099.5 167.652 1098.24 165.468 1096.94 163.217Z" fill="black"/>
<path d="M941.764 164.539C943.949 163.277 946.133 162.016 948.384 160.717C950.907 165.086 953.429 169.455 956.028 173.957C950.931 176.9 945.834 179.843 940.582 182.875C939.32 180.69 938.059 178.506 936.76 176.255C939.672 174.573 942.585 172.891 945.586 171.159C944.325 168.974 943.064 166.789 941.764 164.539Z" fill="black"/>
<path d="M161.656 214.789C166.025 212.266 170.395 209.744 174.896 207.145C177.839 212.242 180.782 217.34 183.815 222.592C181.63 223.853 179.445 225.114 177.195 226.414C175.513 223.501 173.831 220.588 172.098 217.587C169.914 218.848 167.729 220.11 165.478 221.409C164.217 219.225 162.956 217.04 161.656 214.789Z" fill="black"/>
<path d="M1516.09 318.428C1519 316.746 1521.91 315.064 1524.91 313.332C1527.86 318.429 1530.8 323.527 1533.83 328.778C1530.92 330.46 1528.01 332.142 1525 333.875C1522.06 328.777 1519.12 323.68 1516.09 318.428Z" fill="black"/>
<path d="M1076.4 163.309C1081.5 160.366 1086.59 157.423 1091.85 154.39C1093.53 157.303 1095.21 160.216 1096.94 163.217C1091.84 166.16 1086.75 169.103 1081.49 172.135C1079.81 169.223 1078.13 166.31 1076.4 163.309Z" fill="black"/>
<path d="M1034.97 157.803C1040.07 154.86 1045.16 151.917 1050.42 148.885C1052.1 151.797 1053.78 154.71 1055.51 157.711C1050.41 160.654 1045.32 163.597 1040.06 166.629C1038.38 163.717 1036.7 160.804 1034.97 157.803Z" fill="black"/>
<path d="M703.258 261.049C708.355 258.106 713.453 255.163 718.705 252.131C720.386 255.043 722.068 257.956 723.801 260.957C718.703 263.9 713.606 266.843 708.354 269.876C706.672 266.963 704.99 264.05 703.258 261.049Z" fill="black"/>
<path d="M601.133 252.338C606.23 249.395 611.328 246.452 616.58 243.42C618.261 246.332 619.943 249.245 621.676 252.246C616.578 255.189 611.481 258.132 606.229 261.165C604.547 258.252 602.865 255.339 601.133 252.338Z" fill="black"/>
<path d="M442.141 247.041C445.053 245.359 447.966 243.678 450.967 241.945C453.91 247.042 456.853 252.14 459.886 257.392C456.973 259.073 454.06 260.755 451.059 262.488C448.116 257.39 445.173 252.293 442.141 247.041Z" fill="black"/>
<path d="M482.859 164.688C487.957 161.744 493.054 158.801 498.306 155.769C499.988 158.682 501.67 161.595 503.402 164.596C498.305 167.539 493.207 170.482 487.956 173.514C486.274 170.601 484.592 167.689 482.859 164.688Z" fill="black"/>
<path d="M235.594 210.352C238.507 208.67 241.419 206.988 244.42 205.255C247.364 210.353 250.307 215.45 253.339 220.702C250.426 222.384 247.513 224.066 244.512 225.798C241.569 220.701 238.626 215.603 235.594 210.352Z" fill="black"/>
<path d="M1178.02 201.73C1182.39 199.208 1186.76 196.685 1191.26 194.086C1192.95 196.999 1194.63 199.912 1196.36 202.913C1191.99 205.436 1187.62 207.958 1183.12 210.557C1181.44 207.644 1179.76 204.732 1178.02 201.73Z" fill="black"/>
<path d="M1608.38 391.656C1610.57 390.395 1612.75 389.134 1615 387.834C1617.95 392.932 1620.89 398.029 1623.92 403.281C1621.74 404.542 1619.55 405.804 1617.3 407.103C1614.36 402.006 1611.42 396.908 1608.38 391.656Z" fill="black"/>
<path d="M1445.56 379.74C1450.66 376.797 1455.76 373.854 1461.01 370.822C1462.27 373.007 1463.53 375.191 1464.83 377.442C1459.73 380.385 1454.64 383.328 1449.38 386.36C1448.12 384.176 1446.86 381.991 1445.56 379.74Z" fill="black"/>
<path d="M1442.15 322.865C1444.33 321.604 1446.52 320.343 1448.77 319.043C1451.71 324.141 1454.65 329.238 1457.69 334.49C1455.5 335.751 1453.32 337.013 1451.07 338.312C1448.12 333.215 1445.18 328.117 1442.15 322.865Z" fill="black"/>
<path d="M1054.13 343.873C1059.23 340.93 1064.33 337.987 1069.58 334.955C1070.84 337.139 1072.1 339.324 1073.4 341.575C1068.3 344.518 1063.21 347.461 1057.95 350.493C1056.69 348.308 1055.43 346.124 1054.13 343.873Z" fill="black"/>
<path d="M955.008 156.895C960.105 153.952 965.203 151.009 970.455 147.976C971.716 150.161 972.977 152.346 974.277 154.596C969.179 157.539 964.082 160.482 958.83 163.515C957.569 161.33 956.307 159.145 955.008 156.895Z" fill="black"/>
<path d="M686.289 282.615C691.387 279.672 696.484 276.729 701.736 273.697C702.997 275.882 704.258 278.066 705.558 280.317C700.461 283.26 695.363 286.203 690.111 289.235C688.85 287.051 687.589 284.866 686.289 282.615Z" fill="black"/>
<path d="M628.297 248.424C633.394 245.481 638.492 242.538 643.744 239.506C645.005 241.69 646.266 243.875 647.566 246.126C642.468 249.069 637.371 252.012 632.119 255.044C630.858 252.859 629.596 250.675 628.297 248.424Z" fill="black"/>
<path d="M575.25 258.459C580.347 255.516 585.445 252.573 590.697 249.541C591.958 251.725 593.219 253.91 594.519 256.161C589.421 259.104 584.324 262.047 579.072 265.079C577.811 262.894 576.55 260.71 575.25 258.459Z" fill="black"/>
<path d="M470.328 260.189C475.426 257.246 480.523 254.303 485.775 251.271C487.036 253.456 488.298 255.64 489.597 257.891C484.5 260.834 479.402 263.777 474.15 266.81C472.889 264.625 471.628 262.44 470.328 260.189Z" fill="black"/>
<path d="M624.273 124.234C629.371 121.291 634.468 118.348 639.72 115.316C640.982 117.501 642.243 119.685 643.542 121.936C638.445 124.879 633.347 127.822 628.096 130.854C626.834 128.67 625.573 126.485 624.273 124.234Z" fill="black"/>
<path d="M405.805 250.363C410.902 247.42 416 244.477 421.251 241.445C422.513 243.63 423.774 245.814 425.074 248.065C419.976 251.008 414.879 253.951 409.627 256.983C408.365 254.799 407.104 252.614 405.805 250.363Z" fill="black"/>
<path d="M178.719 213.765L200.786 201.025L205.882 209.852L214.709 204.755L218.531 211.376L231.771 203.732L235.593 210.351L251.04 201.433L254.862 208.053L270.309 199.135L275.405 207.962L297.472 195.222L301.293 201.841L314.533 194.197L318.356 200.818L324.976 196.995L330.072 205.822L360.966 187.986L364.788 194.606L378.028 186.962L381.85 193.582L412.743 175.745L417.839 184.572L439.907 171.831L443.729 178.452L463.59 166.985L467.411 173.605L476.237 168.509L481.334 177.336L487.954 173.514L482.858 164.687L498.305 155.768L503.401 164.595L525.468 151.855L529.29 158.475L542.53 150.831L546.352 157.452L583.866 135.793L588.962 144.619L624.269 124.235L628.091 130.855L599.404 147.418L607.048 160.657L622.495 151.739L627.591 160.566L640.831 152.922L644.653 159.542L660.1 150.624L663.923 157.244L670.542 153.422L675.638 162.248L684.465 157.152L688.287 163.772L701.528 156.128L705.35 162.748L736.244 144.912L741.34 153.739L770.026 137.177L773.848 143.796L780.468 139.974L784.291 146.594L806.357 133.854L811.453 142.681L826.901 133.763L830.722 140.382L843.962 132.738L847.785 139.358L863.231 130.44L868.327 139.267L883.774 130.349L887.597 136.969L900.836 129.325L904.658 135.945L911.279 132.122L915.101 138.743L930.547 129.825L935.643 138.652L951.091 129.733L954.912 136.353L968.152 128.709L971.975 135.329L980.801 130.233L985.898 139.06L992.518 135.237L996.34 141.858L1002.96 138.036L1006.78 144.655L1022.23 135.737L1027.32 144.564L1033.95 140.742L1037.77 147.362L1046.59 142.266L1050.42 148.886L1057.04 145.064L1062.13 153.89L1068.75 150.068L1076.4 163.309L1091.84 154.391L1096.94 163.217L1119.01 150.477L1122.83 157.097L1136.07 149.452L1139.89 156.073L1155.34 147.155L1159.16 153.774L1165.78 149.952L1174.7 165.399L1183.52 160.303L1187.35 166.923L1200.59 159.279L1205.68 168.105L1214.51 163.009L1218.33 169.63L1224.95 165.807L1228.77 172.428L1235.39 168.606L1244.31 184.052L1250.93 180.23L1254.75 186.85L1263.58 181.754L1268.68 190.581L1281.92 182.937L1285.74 189.557L1294.57 184.46L1298.39 191.081L1305.01 187.258L1313.93 202.705L1320.55 198.883L1328.19 212.124L1343.64 203.205L1348.73 212.032L1355.35 208.21L1359.18 214.83L1368 209.734L1371.82 216.354L1378.44 212.532L1387.36 227.978L1393.98 224.156L1397.8 230.777L1406.63 225.681L1411.73 234.507L1418.35 230.685L1425.99 243.925L1432.61 240.103L1441.53 255.55L1448.15 251.728L1460.89 273.795L1469.72 268.699L1482.46 290.765L1489.08 286.943L1501.82 309.01L1508.44 305.188L1516.08 318.429L1524.91 313.333L1533.83 328.779L1540.45 324.957L1557.01 353.644L1563.63 349.822L1580.19 378.509L1589.02 373.413L1597.94 388.859L1604.56 385.037L1608.38 391.657L1615 387.835L1623.92 403.282L1632.74 398.185L1641.66 413.633L1632.84 418.729L1627.74 409.902L1621.12 413.724L1617.3 407.104L1610.68 410.926L1606.86 404.307L1591.41 413.225L1586.31 404.398L1570.87 413.316L1567.04 406.696L1560.42 410.518L1556.6 403.898L1549.98 407.72L1544.89 398.893L1529.44 407.811L1517.97 387.951L1524.59 384.129L1515.67 368.682L1509.05 372.504L1483.57 328.371L1476.95 332.193L1468.03 316.746L1474.66 312.923L1470.83 306.304L1457.59 313.948L1448.67 298.501L1461.92 290.857L1454.27 277.617L1447.65 281.439L1443.83 274.819L1437.21 278.641L1432.11 269.814L1410.05 282.554L1426.61 311.241L1439.85 303.597L1448.77 319.045L1442.15 322.866L1451.06 338.313L1457.68 334.491L1478.07 369.798L1493.52 360.88L1511.35 391.774L1504.73 395.596L1499.64 386.769L1490.81 391.865L1486.99 385.245L1480.37 389.067L1476.55 382.447L1469.93 386.269L1461.01 370.822L1445.56 379.74L1394.6 291.472L1379.15 300.391L1371.51 287.151L1364.89 290.973L1347.05 260.079L1340.43 263.901L1332.79 250.661L1323.96 255.758L1318.86 246.931L1312.24 250.753L1308.42 244.133L1301.8 247.954L1292.88 232.508L1284.06 237.604L1276.41 224.364L1269.79 228.186L1265.97 221.566L1259.35 225.388L1254.25 216.561L1247.63 220.383L1243.81 213.763L1234.99 218.859L1231.16 212.24L1224.54 216.062L1219.45 207.235L1212.83 211.057L1209.01 204.437L1200.18 209.533L1196.36 202.913L1174.29 215.654L1178.11 222.273L1171.49 226.095L1180.41 241.543L1173.79 245.365L1177.61 251.984L1168.79 257.08L1172.61 263.7L1165.99 267.523L1171.08 276.349L1164.46 280.172L1168.28 286.791L1152.84 295.709L1156.66 302.33L1143.42 309.974L1147.24 316.594L1131.8 325.512L1136.89 334.339L1121.44 343.258L1125.27 349.877L1103.2 362.618L1099.38 355.998L1086.14 363.642L1081.04 354.815L1072.21 359.911L1068.39 353.291L1055.15 360.935L1051.33 354.315L1042.5 359.411L1038.68 352.791L1032.06 356.614L1026.97 347.787L1020.35 351.609L1016.52 344.988L1009.9 348.81L1006.08 342.191L997.255 347.287L992.158 338.46L985.538 342.283L981.716 335.662L975.096 339.484L971.275 332.864L962.448 337.961L957.351 329.134L950.731 332.956L946.909 326.336L940.289 330.157L936.467 323.537L927.64 328.633L922.544 319.806L915.924 323.629L912.102 317.009L905.482 320.831L901.66 314.211L886.213 323.129L881.117 314.302L874.496 318.124L870.675 311.505L861.848 316.601L854.203 303.36L847.584 307.182L842.488 298.356L835.868 302.178L828.223 288.938L821.604 292.76L816.507 283.933L807.68 289.029L800.036 275.789L793.416 279.611L788.32 270.784L781.7 274.607L774.055 261.367L765.229 266.462L760.133 257.636L746.893 265.28L743.07 258.66L721.004 271.4L717.182 264.781L723.802 260.958L718.706 252.131L703.259 261.05L708.355 269.877L701.735 273.698L688.995 251.632L682.375 255.454L678.553 248.834L669.726 253.93L664.63 245.103L651.39 252.747L647.567 246.127L632.12 255.045L628.298 248.426L606.232 261.166L601.135 252.339L579.069 265.079L575.246 258.459L562.007 266.103L558.185 259.483L549.358 264.58L544.262 255.753L537.641 259.575L533.819 252.955L518.373 261.873L514.55 255.252L501.31 262.897L496.214 254.071L474.147 266.811L470.325 260.191L463.705 264.013L459.882 257.393L451.056 262.488L442.138 247.042L428.898 254.686L425.075 248.066L409.629 256.984L405.807 250.364L399.186 254.186L394.091 245.36L385.264 250.456L381.442 243.836L374.822 247.658L371 241.037L364.38 244.859L359.283 236.033L350.456 241.129L346.635 234.509L340.014 238.331L336.192 231.711L322.952 239.355L317.856 230.528L309.029 235.625L305.207 229.005L291.967 236.649L288.145 230.029L279.318 235.125L274.222 226.298L267.603 230.12L263.78 223.499L248.333 232.418L239.415 216.972L226.175 224.616L222.353 217.995L213.526 223.091L209.704 216.472L196.465 224.116L192.642 217.496L177.195 226.414L172.099 217.587L165.479 221.409L161.656 214.789L174.897 207.145L178.719 213.765ZM1078.9 300.148L1086.55 313.388L1093.17 309.566L1085.52 296.326L1078.9 300.148ZM1048.42 267.73L1063.86 258.812L1067.69 265.432L1074.31 261.61L1066.66 248.37L1053.42 256.014L1048.33 247.188L1039.5 252.284L1048.42 267.73ZM955.62 224.212L949 228.034L952.822 234.655L974.889 221.914L967.245 208.674L958.418 213.77L953.322 204.943L946.701 208.765L955.62 224.212Z" fill="black"/>
<path d="M1122.83 157.096C1127.2 154.573 1131.57 152.051 1136.07 149.452C1137.33 151.636 1138.59 153.821 1139.89 156.072C1135.52 158.594 1131.15 161.117 1126.65 163.716C1125.39 161.531 1124.13 159.347 1122.83 157.096Z" fill="black"/>
<path d="M592.789 151.238C594.974 149.977 597.158 148.716 599.409 147.416C601.932 151.785 604.454 156.155 607.053 160.656C604.869 161.918 602.684 163.179 600.433 164.478C597.911 160.109 595.388 155.74 592.789 151.238Z" fill="black"/>
<path d="M222.352 217.994C226.721 215.472 231.09 212.949 235.592 210.35C236.853 212.535 238.114 214.719 239.414 216.97C235.045 219.493 230.675 222.015 226.174 224.614C224.912 222.43 223.651 220.245 222.352 217.994Z" fill="black"/>
</g>
</g>
</g>
<defs>
<filter id="filter0_g_484_871" x="107" y="-479" width="1692.38" height="1591.65" filterUnits="userSpaceOnUse" color-interpolation-filters="sRGB">
<feFlood flood-opacity="0" result="BackgroundImageFix"/>
<feBlend mode="normal" in="SourceGraphic" in2="BackgroundImageFix" result="shape"/>
<feTurbulence type="fractalNoise" baseFrequency="0.5 0.5" numOctaves="3" seed="7565" />
<feDisplacementMap in="shape" scale="20" xChannelSelector="R" yChannelSelector="G" result="displacedImage" width="100%" height="100%" />
<feMerge result="effect1_texture_484_871">
<feMergeNode in="displacedImage"/>
</feMerge>
</filter>
<clipPath id="clip0_484_871">
<rect width="1920" height="635" fill="white"/>
</clipPath>
<clipPath id="clip1_484_871">
<rect width="1324.99" height="1049.8" fill="white" transform="translate(117 193.496) rotate(-30)"/>
</clipPath>
</defs>
</svg>
