<?xml version="1.0" standalone="no"?>
<!DOCTYPE svg PUBLIC "-//W3C//DTD SVG 20010904//EN"
 "http://www.w3.org/TR/2001/REC-SVG-20010904/DTD/svg10.dtd">
<svg version="1.0" xmlns="http://www.w3.org/2000/svg"
 width="460.000000pt" height="460.000000pt" viewBox="0 0 460.000000 460.000000"
 preserveAspectRatio="xMidYMid meet">
<metadata>
Created by potrace 1.14, written by Peter Selinger 2001-2017
</metadata>
<g transform="translate(0.000000,460.000000) scale(0.100000,-0.100000)"
fill="#000000" stroke="none">
<path d="M0 3869 c0 -484 3 -728 10 -724 5 3 10 13 10 21 0 17 42 19 73 2 12
-6 44 -13 71 -15 69 -6 107 -26 180 -97 105 -101 144 -207 131 -350 -10 -113
-9 -111 -28 -139 -9 -15 -17 -30 -17 -34 0 -5 -11 -25 -25 -45 -14 -20 -25
-44 -25 -52 0 -9 -5 -16 -11 -16 -16 0 -165 -152 -183 -188 -9 -18 -13 -32 -9
-32 3 0 -15 -20 -41 -45 -26 -25 -51 -43 -56 -40 -6 4 -10 -1 -10 -9 0 -9 -6
-16 -14 -16 -8 0 -24 -15 -35 -34 -20 -31 -21 -48 -21 -259 0 -171 3 -227 13
-230 10 -4 10 -6 0 -6 -9 -1 -13 -21 -13 -67 0 -48 3 -65 13 -62 7 3 13 29 15
69 2 43 8 66 18 72 7 4 14 17 14 29 0 17 -2 18 -15 8 -9 -7 -18 -10 -22 -6
-13 13 18 30 99 53 46 13 120 42 165 65 81 41 82 41 109 23 15 -10 37 -28 48
-40 22 -24 222 -159 262 -177 13 -6 24 -15 24 -20 0 -35 354 -400 452 -467
101 -68 181 -88 328 -80 14 1 52 -4 85 -11 88 -18 152 -1 205 52 22 23 40 47
40 55 0 7 5 22 12 33 10 15 10 27 0 52 -6 18 -9 43 -6 54 5 20 11 21 60 17 65
-6 134 4 114 17 -7 4 -10 15 -7 24 9 22 87 23 87 1 0 -8 5 -15 11 -15 5 0 7 5
4 10 -4 6 6 10 21 10 36 0 149 68 195 117 143 153 184 384 97 558 -36 72 -106
148 -168 181 -150 80 -159 96 -59 106 77 7 173 51 212 97 76 91 48 241 -45
241 -22 0 -37 7 -45 19 -8 12 -45 29 -100 46 -48 15 -111 41 -139 60 -101 66
-128 75 -286 95 -182 24 -241 34 -333 60 -38 11 -101 27 -140 36 -88 21 -221
62 -258 81 -34 17 -28 30 12 27 17 -1 34 2 37 7 3 5 16 9 30 9 14 0 35 6 47
14 27 16 175 38 280 41 43 1 83 7 89 13 7 7 18 12 25 12 7 0 13 5 13 10 0 6
18 10 40 10 31 0 40 -4 40 -17 0 -9 2 -14 5 -11 4 3 3 17 -1 32 -5 22 -12 26
-44 26 -21 0 -41 -6 -43 -12 -4 -9 -14 -4 -31 15 -19 20 -26 39 -26 68 0 34
-3 39 -24 39 -17 0 -23 5 -22 18 1 14 -14 20 -74 33 -41 8 -83 19 -93 23 -9 5
-27 6 -38 3 -17 -5 -24 2 -40 39 -20 43 -49 60 -49 27 0 -14 -2 -15 -12 -4
-10 11 -10 14 0 18 6 3 12 8 12 13 0 11 -59 70 -71 70 -5 0 -9 11 -9 24 0 13
-7 29 -15 36 -9 8 -15 30 -15 56 0 32 -4 44 -15 44 -8 0 -15 4 -15 9 0 5 -22
20 -50 32 -27 12 -50 26 -50 31 0 4 -7 8 -15 8 -8 0 -22 18 -31 40 -14 35 -20
40 -49 40 -26 0 -34 5 -39 24 -3 14 -15 28 -26 31 -21 7 -28 25 -10 25 6 0 10
33 10 80 0 44 4 80 9 80 12 0 71 59 71 70 0 5 4 10 9 12 5 2 11 23 12 48 3 40
1 45 -18 48 -12 2 -33 17 -47 33 -14 16 -34 29 -45 29 -18 0 -21 6 -21 44 0
46 16 69 30 45 7 -10 13 -8 27 9 13 17 31 23 70 26 28 2 56 7 62 10 6 4 34 9
63 11 84 7 128 14 139 21 5 3 47 10 92 14 45 5 114 14 152 20 66 10 168 18
315 24 36 2 102 5 148 7 68 3 82 1 83 -11 0 -9 4 -7 9 6 11 27 39 38 46 19 4
-8 10 -12 15 -9 5 3 9 -1 9 -8 0 -7 7 -2 16 10 15 22 52 29 70 13 5 -5 149
-12 319 -16 171 -3 335 -8 365 -10 192 -15 459 -37 503 -41 29 -3 74 -6 100
-8 26 -2 51 -6 54 -10 4 -3 37 -6 74 -6 37 0 69 -5 71 -10 2 -6 23 -14 48 -18
38 -7 45 -11 44 -30 0 -12 4 -22 9 -22 5 0 7 -24 5 -56 -5 -60 -4 -62 51 -68
19 -2 38 -11 43 -20 5 -9 13 -16 18 -16 6 0 21 -10 35 -21 19 -17 22 -26 14
-40 -5 -11 -16 -19 -23 -19 -19 0 -86 -68 -86 -87 0 -8 -11 -24 -25 -35 -21
-16 -25 -28 -25 -69 0 -27 5 -49 10 -49 6 0 10 -27 10 -60 0 -45 4 -62 15 -66
25 -10 17 -34 -10 -34 -25 0 -25 -1 -25 -80 0 -64 -3 -80 -15 -80 -8 0 -15 8
-15 17 0 14 -2 15 -12 4 -10 -11 -10 -14 0 -18 6 -3 12 -16 12 -29 0 -21 -4
-24 -40 -24 -29 0 -40 -4 -40 -15 0 -8 -7 -15 -15 -15 -11 0 -15 -11 -15 -36
0 -27 -7 -41 -25 -56 -15 -12 -25 -30 -25 -46 -1 -26 -1 -26 -16 -7 -13 17
-16 18 -24 5 -5 -8 -10 -34 -10 -58 0 -42 -2 -44 -47 -64 l-47 -21 23 -18 23
-19 -31 0 c-23 0 -31 5 -31 17 0 16 -1 16 -17 0 -9 -9 -13 -20 -9 -24 4 -5
148 -9 319 -10 172 -1 343 -6 380 -12 38 -5 79 -6 90 -2 12 4 43 6 70 3 l47
-4 0 -45 0 -46 50 5 c46 5 51 3 79 -29 25 -28 34 -32 49 -24 11 6 41 7 76 2
38 -5 67 -4 82 3 l24 11 0 798 0 797 -2300 0 -2300 0 0 -731z m900 -1012 c14
-5 43 -13 65 -18 22 -4 58 -13 80 -19 22 -7 67 -16 100 -22 33 -5 101 -16 152
-25 51 -8 105 -15 120 -15 15 0 42 -3 58 -8 17 -5 66 -12 110 -15 129 -9 185
-21 262 -59 40 -20 85 -38 100 -42 16 -3 37 -10 48 -15 11 -4 44 -18 73 -29
129 -49 161 -113 110 -215 -21 -43 -54 -74 -77 -75 -8 0 -19 -7 -26 -17 -12
-16 -93 -24 -142 -12 -30 7 -93 42 -93 51 0 5 -11 8 -24 8 -31 0 -86 20 -86
31 0 5 -14 9 -32 9 -17 0 -39 7 -49 16 -10 9 -41 17 -73 19 -74 4 -135 32
-143 64 l-6 26 -10 -28 c-5 -16 -16 -27 -27 -27 -10 0 -22 -4 -25 -10 -9 -14
-88 -13 -103 2 -6 6 -37 13 -69 15 -93 5 -168 25 -270 69 -17 8 -40 14 -50 14
-11 0 -28 9 -38 20 -11 13 -25 18 -37 14 -11 -3 -18 0 -18 9 0 7 -12 26 -27
41 l-28 28 9 108 c9 107 9 109 35 113 44 7 105 4 131 -6z m-160 -268 c0 -5 -4
-9 -8 -9 -5 0 -9 7 -9 15 0 8 4 12 9 9 4 -3 8 -9 8 -15z m296 -204 c34 -8 88
-16 120 -19 33 -3 59 -6 59 -7 0 -4 55 -9 136 -13 74 -3 207 -28 232 -43 5 -3
28 -6 52 -8 48 -3 105 -39 105 -67 0 -13 8 -18 33 -19 23 -1 26 -3 10 -6 -21
-4 -28 -19 -24 -50 1 -7 -8 -13 -20 -13 -27 0 -118 46 -142 71 -17 18 -40 23
-102 19 -18 -1 -46 9 -68 25 -39 26 -57 26 -57 -1 0 -18 -44 -19 -59 0 -7 8
-23 17 -37 20 -14 4 -28 15 -32 26 -6 17 -10 16 -46 -16 -21 -19 -48 -34 -60
-34 -13 0 -26 -3 -29 -7 -11 -10 -56 -13 -62 -3 -3 4 -20 4 -39 0 -76 -17
-216 40 -216 87 0 8 -4 12 -9 9 -9 -6 -41 36 -41 54 0 16 224 12 296 -5z
m-492 -81 c9 -3 13 -10 10 -15 -3 -5 2 -9 10 -9 9 0 15 -6 14 -12 -2 -7 6 -14
18 -16 12 -2 27 -14 34 -28 7 -13 17 -24 22 -24 5 0 19 -10 31 -23 12 -12 41
-35 65 -50 102 -66 187 -155 208 -219 4 -10 10 -18 15 -18 13 0 79 -72 74 -81
-3 -4 8 -16 25 -25 16 -10 32 -25 35 -34 3 -8 20 -22 38 -31 17 -9 32 -22 32
-30 0 -8 4 -20 9 -27 4 -7 5 -16 2 -19 -3 -4 6 -15 21 -24 20 -13 28 -28 29
-52 1 -19 9 -48 18 -65 21 -40 20 -42 -7 -42 -13 0 -33 -9 -44 -19 -12 -11
-24 -17 -27 -14 -3 4 -6 1 -6 -6 0 -8 -7 -11 -15 -7 -10 3 -15 -1 -15 -12 0
-14 -2 -14 -9 -3 -6 9 -15 11 -27 6 -11 -5 -22 -7 -26 -7 -5 1 -8 -3 -8 -8 0
-6 5 -10 11 -10 6 0 26 -16 44 -36 32 -33 38 -36 85 -32 34 2 50 -1 50 -9 0
-14 66 -83 79 -83 17 0 20 -29 3 -33 -15 -3 -15 -5 2 -12 13 -6 21 -4 24 3 2
7 8 12 14 12 14 0 78 -66 78 -80 0 -5 3 -9 7 -9 5 1 18 1 31 0 19 -1 21 -4 13
-19 -7 -13 -6 -23 1 -30 9 -9 5 -12 -15 -12 -15 0 -27 -4 -27 -10 0 -11 -93
-14 -104 -3 -3 4 -12 8 -19 9 -30 5 -42 11 -71 37 -17 15 -33 27 -37 27 -10 0
-49 77 -49 96 0 11 -5 14 -16 10 -12 -4 -15 -2 -10 9 3 8 0 14 -7 12 -7 -1
-11 4 -9 12 3 12 0 12 -12 2 -10 -8 -16 -9 -21 -1 -3 5 -1 10 4 10 6 0 11 4
11 8 0 17 -60 0 -61 -17 -1 -14 -2 -13 -6 2 -2 9 -9 17 -14 17 -5 0 -9 8 -9
18 0 13 -2 14 -9 3 -11 -17 -31 -6 -31 18 0 25 -11 33 -27 19 -8 -6 -13 -7
-11 -2 4 13 -43 63 -73 78 -13 6 -28 21 -34 34 -5 12 -18 25 -27 28 -10 3 -18
12 -18 20 0 8 -4 14 -10 14 -5 0 -10 7 -10 15 0 8 -5 14 -11 13 -6 -2 -18 16
-26 39 -9 28 -20 41 -31 41 -25 -2 -92 22 -92 33 0 5 -6 9 -12 9 -11 0 -65 38
-115 80 -7 5 -17 10 -23 10 -5 0 -10 5 -10 11 0 6 -7 9 -15 5 -8 -3 -14 0 -12
6 1 7 -3 12 -8 13 -6 0 -31 19 -55 43 -24 23 -50 40 -58 37 -7 -2 -15 2 -18
10 -3 8 -14 17 -25 20 -10 4 -19 11 -19 16 0 13 -25 39 -37 39 -9 0 -28 41
-37 83 -4 15 -2 27 3 27 5 0 18 15 28 33 24 39 147 171 187 200 16 11 45 24
65 28 50 9 57 10 75 3z m1094 -180 c32 -9 27 -29 -13 -60 -50 -38 -117 -129
-144 -197 -13 -31 -27 -60 -32 -63 -11 -7 -93 50 -113 77 -11 16 -12 28 -4 50
13 39 2 93 -25 125 -19 22 -35 27 -97 34 -79 8 -110 17 -110 30 0 5 12 11 28
14 36 6 481 -2 510 -10z m513 -40 c31 -22 45 -40 47 -60 3 -24 2 -26 -12 -15
-23 19 -83 6 -91 -19 -8 -26 -30 -25 -48 0 -17 25 -71 36 -100 22 -12 -6 -44
-13 -70 -15 -30 -3 -78 -20 -128 -46 -66 -35 -80 -39 -85 -26 -16 41 75 163
134 180 20 6 97 10 173 10 l137 0 43 -31z m-91 -334 c0 -37 32 -90 54 -89 52
5 65 -2 81 -35 9 -19 14 -44 10 -55 -3 -11 -35 -47 -70 -80 -68 -63 -117 -81
-183 -67 -27 7 -56 41 -51 62 1 5 -1 21 -5 37 -6 19 -15 27 -31 27 -13 0 -30
7 -38 15 -31 30 10 85 63 85 46 1 113 42 134 83 21 41 36 48 36 17z m-264
-385 c19 -14 19 -14 -2 -15 -12 0 -27 7 -34 15 -17 20 9 21 36 0z m-376 -91
c0 -2 -7 -4 -15 -4 -8 0 -15 4 -15 10 0 5 7 7 15 4 8 -4 15 -8 15 -10z"/>
<path d="M1665 2180 c-3 -5 -1 -10 4 -10 6 0 11 5 11 10 0 6 -2 10 -4 10 -3 0
-8 -4 -11 -10z"/>
<path d="M1720 4222 c-45 -12 -86 -40 -113 -75 -32 -42 -41 -76 -33 -121 8
-40 80 -126 106 -126 9 0 23 -7 30 -15 16 -19 50 -19 50 0 0 28 81 31 214 9
131 -22 185 158 76 253 -63 55 -119 76 -214 79 -50 2 -102 0 -116 -4z"/>
<path d="M3715 4050 c-3 -5 3 -10 15 -10 12 0 18 5 15 10 -3 6 -10 10 -15 10
-5 0 -12 -4 -15 -10z"/>
<path d="M4530 2839 c-30 -16 -64 -38 -75 -49 -12 -11 -28 -20 -36 -20 -8 0
-24 -7 -35 -15 -10 -8 -36 -19 -56 -25 -31 -9 -38 -15 -38 -36 0 -14 -11 -35
-25 -48 -28 -26 -32 -46 -10 -46 11 0 15 -11 15 -36 0 -27 7 -41 25 -56 14
-11 25 -30 25 -44 0 -15 6 -24 15 -24 11 0 15 -11 15 -40 0 -22 5 -40 10 -40
6 0 10 -33 10 -80 0 -64 3 -80 15 -80 12 0 15 -16 15 -80 0 -64 3 -80 15 -80
12 0 15 -16 15 -80 0 -47 4 -80 10 -80 6 0 10 -18 10 -40 0 -29 4 -40 15 -40
8 0 15 -7 15 -16 0 -8 7 -23 16 -32 15 -15 15 -16 -2 -23 -17 -7 -17 -8 -1 -8
15 -1 17 -14 17 -121 0 -73 4 -120 10 -120 6 0 10 -9 10 -20 0 -11 7 -23 15
-26 17 -7 21 -34 5 -34 -5 0 -10 -18 -10 -40 0 -22 5 -40 10 -40 21 0 9 -49
-17 -70 l-28 -22 28 -23 c28 -25 34 -41 18 -47 -5 -1 -12 -38 -16 -81 -6 -67
-5 -77 9 -77 11 0 16 9 16 30 0 23 4 30 20 30 20 0 20 7 20 905 0 498 -3 905
-7 904 -5 0 -33 -14 -63 -30z m13 -1033 c7 -19 -1 -26 -30 -26 -25 0 -26 1
-17 24 8 20 40 21 47 2z"/>
<path d="M4443 1533 c9 -2 23 -2 30 0 6 3 -1 5 -18 5 -16 0 -22 -2 -12 -5z"/>
<path d="M4455 1510 c3 -5 10 -10 16 -10 5 0 9 5 9 10 0 6 -7 10 -16 10 -8 0
-12 -4 -9 -10z"/>
<path d="M3 1360 c0 -25 2 -35 4 -22 2 12 2 32 0 45 -2 12 -4 2 -4 -23z"/>
<path d="M0 1225 c0 -74 2 -85 18 -85 9 0 24 5 32 10 13 8 12 10 -2 10 -14 0
-18 9 -18 40 0 33 3 40 20 40 17 0 20 -7 22 -42 l1 -43 6 45 c5 38 3 45 -12
48 -10 2 -22 14 -27 26 -5 13 -16 26 -24 29 -14 6 -16 -5 -16 -78z"/>
<path d="M0 540 l0 -540 390 0 c375 0 390 1 390 19 0 10 -8 22 -17 25 -31 11
-70 35 -84 52 -10 13 -10 17 2 25 11 8 9 14 -13 34 -16 13 -28 29 -28 35 0 5
-6 10 -13 10 -7 0 -18 9 -24 19 -7 11 -25 26 -40 33 -25 12 -28 19 -31 68 -3
54 -22 90 -47 90 -7 0 -18 7 -25 15 -10 12 -10 15 4 15 24 0 20 15 -15 49 -17
17 -35 31 -40 31 -5 0 -9 7 -9 15 0 11 -11 15 -40 15 -23 0 -40 5 -40 11 0 8
-18 10 -59 6 -50 -5 -63 -3 -84 13 -14 11 -34 20 -45 20 -25 0 -52 31 -52 58
0 17 -6 22 -25 22 -30 0 -30 3 -25 243 2 140 1 157 -14 157 -15 0 -16 -48 -16
-540z m160 30 c0 -5 -18 -10 -40 -10 -22 0 -40 5 -40 10 0 6 18 10 40 10 22 0
40 -4 40 -10z"/>
<path d="M4560 936 c0 -25 -8 -43 -31 -65 -17 -17 -35 -31 -40 -31 -5 0 -9 -5
-9 -11 0 -6 -6 -17 -14 -25 -11 -10 -13 -29 -9 -68 5 -52 4 -57 -26 -86 -22
-23 -31 -41 -31 -64 0 -39 -26 -66 -64 -66 -16 0 -25 -4 -21 -10 3 -5 -1 -10
-9 -10 -9 0 -16 -7 -16 -15 0 -8 -9 -15 -20 -15 -21 0 -23 -7 -20 -52 1 -14
-3 -29 -9 -33 -18 -11 -12 -23 9 -18 23 6 27 -9 7 -26 -10 -8 -17 -7 -26 2
-10 9 -15 8 -27 -7 -8 -11 -14 -28 -14 -38 0 -13 -8 -18 -27 -19 -16 0 -22 -3
-15 -6 6 -2 12 -20 12 -39 0 -33 -1 -34 -40 -34 -22 0 -40 -4 -40 -10 0 -5
-20 -10 -44 -10 -53 0 -116 -25 -116 -45 0 -9 -9 -15 -24 -15 -13 0 -29 -7
-36 -15 -7 -8 -18 -15 -25 -15 -18 0 -55 -48 -55 -71 0 -18 17 -19 410 -19
l410 0 0 485 c0 478 0 485 -20 485 -16 0 -20 -7 -20 -34z m-250 -490 c6 -8 10
-25 7 -38 -4 -19 -5 -18 -6 6 -1 28 -2 29 -15 10 -11 -15 -17 -16 -27 -7 -14
14 -5 43 14 43 8 0 20 -7 27 -14z m7 -82 c-3 -3 -12 -4 -19 -1 -8 3 -5 6 6 6
11 1 17 -2 13 -5z m-82 -217 c0 -18 -5 -23 -17 -19 -10 2 -18 10 -18 17 0 8 8
16 18 18 9 3 17 5 17 6 0 0 0 -10 0 -22z"/>
<path d="M4248 743 c7 -3 16 -2 19 1 4 3 -2 6 -13 5 -11 0 -14 -3 -6 -6z"/>
<path d="M4110 250 c0 -5 5 -10 10 -10 6 0 10 5 10 10 0 6 -4 10 -10 10 -5 0
-10 -4 -10 -10z"/>
<path d="M3738 126 c-20 -15 -24 -41 -7 -52 16 -10 31 11 27 39 -3 23 -5 24
-20 13z"/>
</g>
</svg>
